<svg width="33" height="33" viewBox="0 0 33 33" fill="none" xmlns="http://www.w3.org/2000/svg">
<path d="M21.0106 33C20.2622 32.8716 19.4993 32.7957 18.7671 32.6052C16.0861 31.9061 13.9564 30.3892 12.3644 28.1288C11.2754 26.5821 10.6279 24.8602 10.4237 22.976C10.4124 22.8702 10.3865 22.7653 10.3639 22.6385C6.84653 22.243 4.01129 20.6445 1.99143 17.7198C0.405893 15.4255 -0.231067 12.8527 0.0732851 10.0805C0.690062 4.46827 5.37725 0.106533 11.1704 0.00158704C16.6568 -0.0977084 22.0133 3.98794 22.6357 10.3711C24.3972 10.5471 26.0595 11.0637 27.5966 12.0139C27.4642 12.2303 27.3423 12.4305 27.2179 12.6299C27.1792 12.692 27.1356 12.7518 27.0944 12.8115C21.2132 9.38218 14.9276 12.2844 12.6058 16.6235C10.0063 21.4809 11.432 27.3708 16.0005 30.3432C20.4729 33.2526 26.3372 32.317 29.6988 28.1926C33.2243 23.868 32.777 17.2911 28.0922 13.5227C28.2779 13.2822 28.4644 13.0408 28.7026 12.7324C29.2015 13.2216 29.7101 13.6624 30.1525 14.1629C31.7873 16.0132 32.7245 18.1735 32.9465 20.6381C32.9522 20.6994 32.9813 20.7576 32.9998 20.8181C32.9998 21.3122 32.9998 21.8062 32.9998 22.3003C32.9102 22.9017 32.8553 23.5112 32.7245 24.1045C32.2595 26.2075 31.269 28.0384 29.7617 29.5771C28.3522 31.0165 26.6835 32.045 24.7282 32.5544C23.9338 32.761 23.1104 32.8555 22.2999 33.0008C21.8704 33 21.4409 33 21.0106 33ZM18.5419 10.7239C18.4038 7.7321 15.9456 4.62084 12.2603 4.13083C8.61613 3.64646 5.20206 5.99322 4.27447 9.64213C3.37837 13.1659 5.47089 17.5115 9.87068 18.4762C9.81013 18.7749 9.74958 19.0736 9.68581 19.3868C8.34972 19.1252 7.19609 18.5448 6.18293 17.7545C5.66787 18.272 5.17623 18.7644 4.67893 19.2633C6.29595 20.6106 8.16647 21.409 10.28 21.6383C10.6481 16.1787 13.3921 12.5467 18.5419 10.7239ZM3.88132 18.519C4.39315 18.0088 4.88479 17.5196 5.36352 17.0425C5.06159 16.6445 4.7193 16.2416 4.4327 15.8033C3.69806 14.6804 3.26293 13.4468 3.13941 12.1051C3.13053 12.005 3.02881 11.8323 2.96584 11.8307C2.31596 11.8105 1.66447 11.8186 0.987956 11.8186C1.15345 14.4406 2.1206 16.659 3.88132 18.519ZM18.2739 3.64484C16.434 2.01737 14.3044 1.12209 11.8155 0.993734C11.8155 1.61534 11.8324 2.19335 11.8082 2.76975C11.7969 3.05391 11.8946 3.13545 12.1642 3.15563C13.2823 3.2404 14.3326 3.57057 15.3006 4.12921C15.8245 4.43194 16.3129 4.79683 16.7997 5.12136C17.2801 4.64022 17.7636 4.15585 18.2739 3.64484ZM4.41494 3.62385C4.92758 4.14051 5.416 4.63215 5.91652 5.1367C7.30346 3.92578 8.95116 3.2517 10.8168 3.11204C10.8168 2.38791 10.8168 1.69607 10.8168 0.991313C8.3473 1.13016 6.21926 2.02221 4.41494 3.62385ZM3.63348 4.4053C2.02211 6.21926 1.12681 8.35048 0.991185 10.8417C1.60716 10.8417 2.19568 10.8288 2.78258 10.8474C3.04173 10.8555 3.13699 10.7796 3.15475 10.5148C3.21449 9.60661 3.43488 8.7299 3.85306 7.92424C4.22604 7.20656 4.6757 6.52925 5.0842 5.8471C4.63049 5.39664 4.13966 4.90824 3.63348 4.4053ZM17.5061 5.89312C18.6694 7.21544 19.3306 8.76865 19.5308 10.5075C20.2542 10.4381 20.9331 10.3735 21.6338 10.3065C21.3941 8.02999 20.5165 6.06668 19.0134 4.38673C18.512 4.88805 18.0268 5.37242 17.5061 5.89312Z" fill="white"/>
<path d="M21.6637 30.4183C16.8562 30.4183 12.8859 26.4441 12.9117 21.6561C12.9376 16.8237 16.9071 12.8664 21.6814 12.9124C26.5204 12.9593 30.4092 16.852 30.418 21.6577C30.4269 26.4602 26.472 30.4183 21.6637 30.4183ZM29.4469 21.6642C29.4477 17.3928 25.9642 13.9094 21.6718 13.8893C17.41 13.8691 13.9225 17.346 13.8886 21.6488C13.8555 25.9064 17.4036 29.4601 21.6726 29.4464C25.948 29.4334 29.4469 25.9306 29.4469 21.6642Z" fill="white"/>
<path d="M7.13401 11.3173C6.83612 11.3173 6.53096 11.3173 6.2258 11.3173C6.13538 8.74042 8.36272 6.1991 11.3086 6.21282C11.3086 6.51555 11.3086 6.81909 11.3086 7.13312C8.80593 7.40276 7.4093 8.78886 7.13401 11.3173Z" fill="white"/>
<path d="M7.13965 13.3855C6.81673 13.3855 6.52287 13.3855 6.21045 13.3855C6.21045 13.0537 6.21045 12.738 6.21045 12.3958C6.51157 12.3958 6.8135 12.3958 7.13965 12.3958C7.13965 12.7138 7.13965 13.0375 7.13965 13.3855Z" fill="white"/>
<path d="M21.1762 18.0597C21.1762 17.7101 21.1762 17.3816 21.1762 17.0344C21.5137 17.0344 21.818 17.0344 22.1555 17.0344C22.1555 17.3775 22.1555 17.7061 22.1555 18.0774C22.8514 18.0532 23.498 18.1089 23.9315 18.7184C24.3433 19.2972 24.1915 19.9511 24.227 20.6066C23.8928 20.6066 23.5884 20.6066 23.251 20.6066C23.251 20.3184 23.2542 20.0424 23.2502 19.7663C23.2421 19.2544 23.0556 19.0615 22.5519 19.0567C21.9504 19.051 21.349 19.0502 20.7476 19.0575C20.2882 19.0631 20.1025 19.2504 20.092 19.7025C20.0856 19.9705 20.0864 20.2393 20.092 20.5082C20.1009 20.978 20.2874 21.1725 20.7597 21.1798C21.3716 21.1895 21.9843 21.1847 22.5963 21.1822C23.1065 21.1806 23.5448 21.3388 23.8726 21.7457C24.3715 22.3641 24.3861 24.0247 23.8984 24.6535C23.5788 25.0652 23.146 25.242 22.6366 25.255C22.4889 25.259 22.342 25.2558 22.1587 25.2558C22.1587 25.6142 22.1587 25.942 22.1587 26.2891C21.8277 26.2891 21.5323 26.2891 21.1891 26.2891C21.1891 25.9541 21.1891 25.6182 21.1891 25.2558C20.482 25.2873 19.8482 25.2219 19.4131 24.6293C18.9836 24.0448 19.1523 23.378 19.1104 22.7144C19.4454 22.7144 19.7425 22.7144 20.0912 22.7144C20.0912 23.0091 20.0872 23.3062 20.092 23.6033C20.1001 24.0739 20.2898 24.2749 20.7548 24.2814C21.3668 24.2903 21.9795 24.2911 22.5914 24.2806C23.033 24.2733 23.2348 24.065 23.2494 23.6226C23.2583 23.3433 23.2607 23.064 23.2486 22.7847C23.23 22.3544 23.033 22.1639 22.6003 22.1582C21.9989 22.1518 21.3974 22.1598 20.796 22.155C19.7449 22.1461 19.1338 21.5431 19.116 20.5001C19.1112 20.1885 19.1047 19.8761 19.1241 19.5661C19.1782 18.7071 19.7182 18.1622 20.5732 18.0895C20.7621 18.0742 20.9534 18.0702 21.1762 18.0597Z" fill="white"/>
<path d="M16.0088 21.1976C16.3446 21.1976 16.6611 21.1976 16.9969 21.1976C16.9969 21.5156 16.9969 21.8184 16.9969 22.1397C16.6659 22.1397 16.3495 22.1397 16.0088 22.1397C16.0088 21.8337 16.0088 21.5318 16.0088 21.1976Z" fill="white"/>
<path d="M26.3281 22.1171C26.3281 21.824 26.3281 21.5294 26.3281 21.2089C26.6599 21.2089 26.9828 21.2089 27.3243 21.2089C27.3243 21.5059 27.3243 21.7909 27.3243 22.1171C27.003 22.1171 26.6761 22.1171 26.3281 22.1171Z" fill="white"/>
</svg>
