<svg width="12" height="12" viewBox="0 0 12 12" fill="none" xmlns="http://www.w3.org/2000/svg">
<path d="M7.54971 10.883C7.36452 11.0877 7.12573 11.1901 6.83333 11.1901C6.56043 11.1901 6.32164 11.0877 6.11696 10.883C5.91228 10.6784 5.80994 10.4396 5.80994 10.1667C5.80994 9.87427 5.91228 9.63548 6.11696 9.45029L10.1959 5.37135C10.2641 5.30312 10.3129 5.39084 10.3421 5.6345C10.3713 5.87817 10.3713 6.12183 10.3421 6.3655C10.3129 6.60916 10.2641 6.69688 10.1959 6.62865L6.11696 2.54971C5.91228 2.36452 5.80994 2.12573 5.80994 1.83333C5.80994 1.55068 5.91228 1.31189 6.11696 1.11696C6.32164 0.91228 6.56043 0.809941 6.83333 0.809941C7.12573 0.809941 7.36452 0.91228 7.54971 1.11696L11.6287 5.19591C11.8528 5.41033 11.9649 5.67836 11.9649 6C11.9649 6.31189 11.8528 6.57992 11.6287 6.80409L7.54971 10.883ZM2.54971 10.883C2.36452 11.0877 2.12573 11.1901 1.83333 11.1901C1.56043 11.1901 1.32164 11.0877 1.11696 10.883C0.912281 10.6784 0.809942 10.4396 0.809942 10.1667C0.809942 9.87427 0.912281 9.63548 1.11696 9.45029L5.19591 5.37135C5.26413 5.30312 5.31287 5.39084 5.34211 5.6345C5.37135 5.87817 5.37135 6.12183 5.34211 6.3655C5.31287 6.60916 5.26413 6.69688 5.19591 6.62865L1.11696 2.54971C0.912281 2.36452 0.809942 2.12573 0.809942 1.83333C0.809942 1.55068 0.912281 1.31189 1.11696 1.11696C1.32164 0.91228 1.56043 0.809941 1.83333 0.809941C2.12573 0.809941 2.36452 0.91228 2.54971 1.11696L6.62865 5.19591C6.85283 5.41033 6.96491 5.67836 6.96491 6C6.96491 6.31189 6.85283 6.57992 6.62865 6.80409L2.54971 10.883Z" fill="white"/>
</svg>
