<svg width="31" height="30" viewBox="0 0 31 30" fill="none" xmlns="http://www.w3.org/2000/svg">
<g clip-path="url(#clip0_78_1061)">
<path d="M0 18.515C0.159356 18.1645 0.442476 17.9746 0.814576 17.876C1.16403 17.7838 1.50539 17.6614 1.85079 17.5534C2.39115 17.3841 2.8312 17.5637 2.99136 18.0175C3.15153 18.4705 2.91128 18.8893 2.37982 19.0681C2.01824 19.1897 1.65261 19.3017 1.2886 19.4169C0.611539 19.6315 0.344597 19.5298 0 18.9306C0 18.7923 0 18.654 0 18.515Z" fill="white"/>
<path d="M29.2049 10.3455C29.2049 10.9463 28.9541 11.4318 28.5205 11.8459C26.9504 13.3447 25.3868 14.849 23.8143 16.3463C23.6153 16.5362 23.5409 16.7214 23.5918 17.0035C23.9777 19.1579 24.349 21.3155 24.7187 23.4731C24.8554 24.2694 24.5811 24.9282 23.934 25.409C23.2853 25.8914 22.5564 25.9725 21.826 25.6101C20.5851 24.9942 19.3604 24.3473 18.1292 23.7123C17.3802 23.3261 16.6263 22.9471 15.8845 22.5481C15.6168 22.4043 15.3943 22.4051 15.1225 22.5473C13.1835 23.5598 11.2389 24.5643 9.29105 25.5608C8.09305 26.1735 6.69363 25.6252 6.34822 24.3863C6.25115 24.0382 6.25762 23.6369 6.31667 23.2761C6.66127 21.1852 7.02933 19.0975 7.4079 17.0114C7.4621 16.715 7.37473 16.5251 7.17008 16.3304C5.61373 14.8451 4.06708 13.351 2.5075 11.8705C1.86522 11.261 1.62497 10.5418 1.90243 9.71049C2.1807 8.87844 2.81003 8.45089 3.69498 8.3293C5.85074 8.03367 8.00245 7.70943 10.1582 7.40983C10.4438 7.3701 10.6015 7.23818 10.7236 6.99341C11.6887 5.05513 12.6602 3.12082 13.6357 1.18731C14.1389 0.190757 15.205 -0.239971 16.2234 0.132744C16.7622 0.32983 17.1278 0.70493 17.3794 1.20718C18.3396 3.12559 19.3094 5.03924 20.264 6.96003C20.4023 7.23897 20.5778 7.37169 20.899 7.41539C23.0652 7.71182 25.2275 8.03208 27.3921 8.33963C28.4607 8.49222 29.2073 9.31076 29.2049 10.3455ZM27.5676 10.4233C27.5539 10.0061 27.3104 9.95049 27.0475 9.91314C24.9031 9.60877 22.7587 9.29725 20.6134 9.00082C19.8134 8.89036 19.2205 8.51924 18.8637 7.79765C18.5952 7.25486 18.3193 6.71526 18.0475 6.17407C17.343 4.77222 16.6376 3.36957 15.9347 1.96692C15.8416 1.78175 15.7429 1.61566 15.497 1.61804C15.2503 1.62043 15.1516 1.7889 15.0659 1.97566C15.0497 2.01142 15.0303 2.04639 15.0125 2.08215C14.0628 3.97274 13.1091 5.86096 12.1659 7.75473C11.8205 8.44851 11.2777 8.87129 10.5004 8.98414C8.93513 9.21142 7.36826 9.42996 5.8022 9.65327C5.13404 9.74864 4.46426 9.83765 3.79852 9.94652C3.42723 10.0077 3.31722 10.3606 3.56798 10.6363C3.6149 10.688 3.66748 10.7349 3.71763 10.7833C5.26347 12.2639 6.80849 13.746 8.35756 15.2233C8.92704 15.7669 9.17133 16.4035 9.03301 17.1855C8.65686 19.3121 8.29447 21.4411 7.92075 23.5677C7.88273 23.7831 7.84956 23.9833 8.05665 24.1327C8.26616 24.2845 8.45463 24.1812 8.64634 24.0819C10.5457 23.0996 12.4515 22.1301 14.3427 21.1335C15.1217 20.7235 15.8602 20.7123 16.6416 21.1232C18.5426 22.1229 20.4565 23.0988 22.3647 24.0859C22.558 24.186 22.7473 24.2829 22.9536 24.1264C23.1429 23.9825 23.1227 23.7958 23.0863 23.5876C22.7182 21.5102 22.3704 19.4289 21.9886 17.3539C21.8268 16.4758 22.0581 15.7709 22.7158 15.1526C24.2681 13.6927 25.7986 12.2106 27.3339 10.7333C27.4415 10.6284 27.5167 10.4909 27.5676 10.4233Z" fill="white"/>
<path d="M16.3068 28.5076C16.3068 28.7651 16.3254 29.0233 16.3027 29.2784C16.2639 29.7116 15.9234 30.0032 15.4938 30C15.0675 29.9969 14.7205 29.6996 14.6995 29.2641C14.6744 28.7412 14.6744 28.2151 14.6995 27.6922C14.7197 27.2567 15.0675 26.9603 15.4938 26.9571C15.9355 26.9539 16.272 27.2535 16.3068 27.7073C16.327 27.9727 16.3108 28.2414 16.3108 28.5084C16.3092 28.5076 16.3076 28.5076 16.3068 28.5076Z" fill="white"/>
<path d="M31 18.685C30.9911 19.258 30.4903 19.6411 29.9735 19.498C29.48 19.3613 28.9914 19.2032 28.5085 19.0315C28.0806 18.8789 27.8727 18.4538 27.9981 18.0485C28.121 17.6511 28.515 17.3976 28.9453 17.5073C29.48 17.6432 30.0074 17.8156 30.5243 18.0079C30.843 18.1264 30.9878 18.4029 31 18.685Z" fill="white"/>
<path d="M6.5506 0.951294C6.67679 1.03474 6.92755 1.13566 7.08529 1.31606C7.39915 1.67527 7.67094 2.07182 7.94436 2.46441C8.221 2.86255 8.13688 3.33063 7.76316 3.59447C7.39996 3.85037 6.92593 3.78282 6.63634 3.41249C6.32895 3.0199 6.03451 2.61699 5.74977 2.20931C5.56291 1.94149 5.5613 1.64825 5.72308 1.36613C5.87354 1.10308 6.11945 0.983877 6.5506 0.951294Z" fill="white"/>
<path d="M22.8521 2.91416C22.9257 2.75522 22.9782 2.58198 23.0769 2.43972C23.3309 2.07098 23.6011 1.71178 23.8729 1.35575C24.1924 0.936942 24.6753 0.85032 25.0612 1.13323C25.4317 1.40423 25.4923 1.88184 25.1963 2.29509C24.918 2.6837 24.6365 3.07151 24.3388 3.44502C24.1034 3.74065 23.7532 3.82092 23.4159 3.69456C23.1004 3.57694 22.8844 3.26224 22.8521 2.91416Z" fill="white"/>
</g>
<defs>
<clipPath id="clip0_78_1061">
<rect width="31" height="30" fill="white"/>
</clipPath>
</defs>
</svg>
