<svg width="32" height="27" viewBox="0 0 32 27" fill="none" xmlns="http://www.w3.org/2000/svg">
<g clip-path="url(#clip0_78_1078)">
<path d="M0 11.0255C0.157755 10.354 0.390631 9.72141 0.868068 9.20299C1.45401 8.56702 2.16934 8.2059 3.02155 8.10527C3.21436 8.08243 3.4055 8.01731 3.58913 7.94797C10.4544 5.35249 17.318 2.75449 24.1824 0.156479C25.3743 -0.294282 26.5178 0.254581 26.9293 1.48085C27.6421 3.60527 28.3524 5.72968 29.0569 7.85663C29.1195 8.04607 29.2055 8.13909 29.4108 8.18561C30.8924 8.52135 31.9616 9.85165 31.99 11.3934C32.0058 12.2898 31.9975 13.1871 31.9933 14.0844C31.9908 14.5876 31.7421 14.8379 31.2354 14.8388C30.6403 14.8405 30.0527 14.843 29.4976 15.1212C28.466 15.6388 27.8425 16.7991 28.0194 17.9121C28.2181 19.1629 29.127 20.0788 30.3315 20.2192C30.6612 20.2581 30.9967 20.2428 31.3289 20.2597C31.6928 20.2784 31.98 20.5058 31.9808 20.8551C31.9833 21.9723 32.0334 23.0979 31.9182 24.2041C31.7588 25.7315 30.3715 26.929 28.8541 26.989C28.4593 27.0051 28.0628 26.9992 27.6672 26.9992C22.4504 27 17.2337 26.9992 12.0169 26.9992C9.22656 26.9992 6.43622 26.9992 3.64672 26.9992C1.66853 26.9992 0.499139 26.0655 0.0358913 24.1204C0.0317179 24.1026 0.0125202 24.0874 0 24.0713C0 22.9525 0 21.8336 0 20.7147C0.199489 20.3545 0.500809 20.22 0.904794 20.2496C1.16188 20.2682 1.4248 20.2479 1.68188 20.2166C2.8521 20.0737 3.75106 19.1789 3.96307 17.956C4.15671 16.8423 3.56075 15.6693 2.5416 15.1407C2.02327 14.8726 1.46904 14.8109 0.904794 14.8455C0.500809 14.8709 0.199489 14.7407 0 14.3821C0 13.2632 0 12.1444 0 11.0255ZM1.37889 13.4645C4.05488 13.6066 5.35949 15.8578 5.33695 17.5932C5.31441 19.3379 3.98977 21.4894 1.32798 21.6306C1.32798 22.2379 1.32631 22.8468 1.32798 23.4565C1.33215 24.8063 2.16516 25.6537 3.49064 25.6545C5.77098 25.6562 8.05133 25.6545 10.3317 25.6545C10.4327 25.6545 10.5345 25.6545 10.6714 25.6545C10.6714 25.4152 10.6647 25.2063 10.6731 24.9982C10.6889 24.5805 10.9518 24.3115 11.3341 24.3132C11.7114 24.3141 11.981 24.5915 11.996 25.0033C12.0035 25.2114 11.9977 25.4194 11.9977 25.6545C12.1421 25.6545 12.254 25.6545 12.3666 25.6545C14.1996 25.6545 16.0317 25.6545 17.8647 25.6545C21.4363 25.6545 25.0079 25.6562 28.5795 25.6537C29.5644 25.6528 30.4083 25.0879 30.566 24.1601C30.7071 23.3305 30.6637 22.4696 30.7021 21.6239C28.0361 21.4852 26.7565 19.4496 26.6747 17.8368C26.6221 16.8025 26.8809 15.8705 27.5144 15.0587C28.3099 14.0396 29.3699 13.5347 30.6678 13.4806C30.6678 12.8463 30.6704 12.2365 30.667 11.6259C30.6612 10.2804 29.8265 9.44233 28.491 9.44148C23.1073 9.44064 17.7245 9.44148 12.3408 9.44148C12.2314 9.44148 12.1212 9.44148 11.9977 9.44148C11.9977 9.68758 12.0035 9.88717 11.9969 10.0868C11.9827 10.4995 11.7156 10.7794 11.34 10.7828C10.9569 10.7862 10.6906 10.5189 10.6739 10.102C10.6656 9.89393 10.6722 9.68504 10.6722 9.46939C10.6021 9.45586 10.5629 9.44233 10.5237 9.44233C8.08722 9.44233 5.64996 9.43049 3.21352 9.44994C2.33544 9.4567 1.48907 10.1654 1.39642 11.0365C1.31212 11.8382 1.37889 12.6543 1.37889 13.4645ZM27.7089 8.08243C27.6697 7.93782 27.6455 7.82703 27.6104 7.72047C26.9802 5.83539 26.35 3.95031 25.7182 2.06524C25.4736 1.33624 25.2057 1.20769 24.4979 1.47578C18.8229 3.62472 13.1479 5.77281 7.4729 7.92259C7.38275 7.95727 7.29428 7.99786 7.2058 8.03592C7.21081 8.05114 7.21498 8.06636 7.21999 8.08243C14.0327 8.08243 20.8453 8.08243 27.7089 8.08243Z" fill="white"/>
<path d="M10.672 14.673C10.672 14.3043 10.6645 13.9347 10.6745 13.566C10.6854 13.1617 10.9708 12.87 11.3339 12.8717C11.7003 12.8733 11.99 13.1643 11.995 13.5685C12.0042 14.317 12.0042 15.0654 11.995 15.8147C11.99 16.2215 11.7012 16.5073 11.3314 16.5065C10.9608 16.5056 10.6854 16.2232 10.6745 15.8122C10.6637 15.4324 10.672 15.0527 10.672 14.673Z" fill="white"/>
<path d="M10.6721 20.3883C10.6721 20.0195 10.6646 19.65 10.6746 19.2812C10.6855 18.8711 10.9634 18.5903 11.3349 18.5911C11.7071 18.5928 11.9901 18.8761 11.9951 19.2846C12.0043 20.0331 12.0043 20.7815 11.9951 21.53C11.9901 21.9334 11.698 22.2243 11.3315 22.2234C10.9676 22.2234 10.6847 21.9308 10.6746 21.5257C10.6646 21.1477 10.6721 20.768 10.6721 20.3883Z" fill="white"/>
</g>
<defs>
<clipPath id="clip0_78_1078">
<rect width="32" height="27" fill="white"/>
</clipPath>
</defs>
</svg>
