<svg width="10" height="16" viewBox="0 0 10 16" fill="none" xmlns="http://www.w3.org/2000/svg">
<path d="M9.6024 13.731C9.86751 13.9649 10.0001 14.2768 10.0001 14.6667C10.0001 15.0253 9.86751 15.3372 9.6024 15.6023C9.35289 15.8674 9.041 16 8.66673 16C8.29246 16 7.98057 15.8674 7.73106 15.6023L1.20474 9.07602C0.924042 8.77973 0.783691 8.42105 0.783691 8C0.783691 7.56335 0.924042 7.20468 1.20474 6.92398L7.73106 0.397661C7.98057 0.132554 8.29246 0 8.66673 0C9.041 0 9.35289 0.132554 9.6024 0.397661C9.86751 0.647173 10.0001 0.959064 10.0001 1.33333C10.0001 1.7076 9.86751 2.01949 9.6024 2.269L3.07609 8.79532C2.99812 8.8733 2.94354 8.76413 2.91235 8.46784C2.88116 8.15595 2.88116 7.85185 2.91235 7.55556C2.94354 7.24366 2.99812 7.12671 3.07609 7.20468L9.6024 13.731Z" fill="white"/>
</svg>
