<svg width="82" height="32" viewBox="0 0 82 32" fill="none" xmlns="http://www.w3.org/2000/svg">
<g clip-path="url(#clip0_78_213)">
<path d="M37.5918 28.1905H39.7272V19.9391H37.5918V28.1905ZM37.5918 18.6523H39.7272V16.6899H37.5918V18.6523Z" fill="white"/>
<path d="M41.1035 30.8927H43.239V27.2576H43.2704C43.7257 27.9653 44.4637 28.4318 45.5942 28.4318C47.6669 28.4318 49.08 26.7429 49.08 24.0728C49.08 21.4992 47.714 19.7139 45.5785 19.7139C44.4794 19.7139 43.7257 20.2447 43.2076 20.9684H43.1605V19.9391H41.1035V30.8927ZM45.1389 26.6142C43.8671 26.6142 43.1919 25.6331 43.1919 24.1371C43.1919 22.6574 43.7257 21.4831 45.0604 21.4831C46.3793 21.4831 46.9132 22.5769 46.9132 24.1371C46.9132 25.6974 46.2223 26.6142 45.1389 26.6142Z" fill="white"/>
<path d="M53.3398 28.4318C55.3496 28.4318 56.7313 27.4345 56.7313 25.7778C56.7313 23.8476 55.2397 23.4616 53.8893 23.1721C52.7431 22.9308 51.6753 22.8664 51.6753 22.1587C51.6753 21.5636 52.2249 21.2419 53.0571 21.2419C53.9678 21.2419 54.5174 21.5636 54.6116 22.4483H56.5429C56.3859 20.7915 55.2083 19.7139 53.0885 19.7139C51.2514 19.7139 49.8068 20.5663 49.8068 22.3517C49.8068 24.1532 51.22 24.5554 52.6646 24.8449C53.7637 25.07 54.7843 25.1505 54.7843 25.9387C54.7843 26.5177 54.2504 26.8876 53.3083 26.8876C52.3505 26.8876 51.691 26.4695 51.5498 25.5204H49.5713C49.6969 27.2737 51.0002 28.4318 53.3398 28.4318Z" fill="white"/>
<path d="M64.8389 28.1904V19.939H62.7035V24.7C62.7035 25.7938 62.0912 26.5658 61.0862 26.5658C60.1756 26.5658 59.7516 26.035 59.7516 25.0699V19.939H57.6318V25.4399C57.6318 27.2414 58.6368 28.4156 60.4268 28.4156C61.5573 28.4156 62.1853 27.9813 62.735 27.2253H62.7821V28.1904H64.8389Z" fill="white"/>
<path d="M66.2202 28.1905H68.3557V23.3972C68.3557 22.3035 68.9367 21.5958 69.8003 21.5958C70.5853 21.5958 71.0407 22.0783 71.0407 23.0112V28.1905H73.1762V23.3972C73.1762 22.3035 73.7257 21.5958 74.6207 21.5958C75.4058 21.5958 75.8612 22.0783 75.8612 23.0112V28.1905H77.9966V22.6413C77.9966 20.8398 77.0388 19.7139 75.343 19.7139C74.3224 19.7139 73.4745 20.2607 72.9249 21.1615H72.8935C72.5009 20.2929 71.6845 19.7139 70.6638 19.7139C69.549 19.7139 68.7639 20.2929 68.3243 21.0489H68.2772V19.9391H66.2202V28.1905Z" fill="white"/>
<path d="M37.6235 14.0577H39.759V2.55713H37.6235V14.0577Z" fill="white"/>
<path d="M44.9801 14.299C47.4767 14.299 49.1881 12.401 49.1881 9.94001C49.1881 7.47905 47.4767 5.58105 44.9801 5.58105C42.4835 5.58105 40.772 7.47905 40.772 9.94001C40.772 12.401 42.4835 14.299 44.9801 14.299ZM44.9801 12.6262C43.6611 12.6262 42.9389 11.5485 42.9389 9.94001C42.9389 8.33153 43.6611 7.23778 44.9801 7.23778C46.2833 7.23778 47.0213 8.33153 47.0213 9.94001C47.0213 11.5485 46.2833 12.6262 44.9801 12.6262Z" fill="white"/>
<path d="M53.7297 16.8726C54.9231 16.8726 55.9594 16.583 56.6346 15.9396C57.2312 15.3766 57.5924 14.5885 57.5924 13.4304V5.80624H55.5354V6.67481H55.5041C55.0173 5.98317 54.2793 5.58105 53.2744 5.58105C51.2332 5.58105 49.7886 7.15736 49.7886 9.61833C49.7886 12.1114 51.5472 13.559 53.3372 13.559C54.3579 13.559 54.9702 13.1409 55.4413 12.594H55.4884V13.4947C55.4884 14.6206 54.9074 15.2158 53.6983 15.2158C52.7091 15.2158 52.2538 14.8137 52.0811 14.299H49.9613C50.1812 15.9074 51.5315 16.8726 53.7297 16.8726ZM53.6983 11.8058C52.5992 11.8058 51.8769 10.9855 51.8769 9.58617C51.8769 8.20289 52.5992 7.33429 53.6826 7.33429C54.9702 7.33429 55.5982 8.36369 55.5982 9.57009C55.5982 10.7925 55.0487 11.8058 53.6983 11.8058Z" fill="white"/>
<path d="M62.7828 14.299C65.2793 14.299 66.9909 12.401 66.9909 9.94001C66.9909 7.47905 65.2793 5.58105 62.7828 5.58105C60.2862 5.58105 58.5747 7.47905 58.5747 9.94001C58.5747 12.401 60.2862 14.299 62.7828 14.299ZM62.7828 12.6262C61.4638 12.6262 60.7415 11.5485 60.7415 9.94001C60.7415 8.33153 61.4638 7.23778 62.7828 7.23778C64.086 7.23778 64.824 8.33153 64.824 9.94001C64.824 11.5485 64.086 12.6262 62.7828 12.6262Z" fill="white"/>
<path d="M68.8628 10.9051H78.0953V9.02319H68.8628V10.9051Z" fill="white"/>
<path d="M78.7725 18.5374C78.7725 18.1673 79.0653 17.8672 79.4269 17.8672H80.735C81.0966 17.8672 81.3894 18.1673 81.3894 18.5374C81.3894 18.9075 81.0966 19.2076 80.735 19.2076H79.4269C79.0653 19.2076 78.7725 18.9075 78.7725 18.5374Z" fill="white"/>
<path fill-rule="evenodd" clip-rule="evenodd" d="M16.0263 0C24.6524 0 31.6453 7.16344 31.6453 16C31.6453 24.8366 24.6524 32 16.0263 32C7.40011 32 0.407227 24.8366 0.407227 16C0.407227 7.16344 7.40011 0 16.0263 0ZM15.4617 1.19727C13.6799 1.45415 11.9832 2.92086 10.6661 5.37392C10.2841 6.08546 9.93937 6.87157 9.63894 7.72035C11.4298 7.25934 13.3971 6.98754 15.4617 6.9455V1.19727ZM8.31889 8.10464C8.69242 6.90366 9.14944 5.79872 9.67681 4.81652C10.3297 3.60047 11.1046 2.55036 11.9776 1.74382C7.23025 3.15618 3.48826 6.98943 2.10953 11.8526C2.89686 10.9582 3.92198 10.1645 5.10907 9.49568C6.06788 8.95544 7.14651 8.48728 8.31889 8.10464ZM7.94372 9.45688C7.49372 11.2914 7.22839 13.3067 7.18736 15.4217H1.57599C1.82676 13.5963 3.25855 11.8582 5.6532 10.5091C6.3478 10.1178 7.11519 9.76464 7.94372 9.45688ZM8.31671 15.4217C8.36333 13.1136 8.68766 10.9467 9.22433 9.03216C11.0933 8.4824 13.2087 8.15008 15.4617 8.10232V10.6006C14.6212 12.805 12.9068 14.561 10.7549 15.4217H8.31671ZM7.18736 16.5783H1.57599C1.82676 18.4037 3.25855 20.1417 5.6532 21.4909C6.3478 21.8822 7.11519 22.2354 7.94372 22.5431C7.49372 20.7086 7.22839 18.6933 7.18736 16.5783ZM9.22433 22.9678C8.68766 21.0533 8.36333 18.8864 8.31671 16.5783H10.7549C12.9068 17.439 14.6213 19.195 15.4617 21.3994V23.8977C13.2087 23.8499 11.0933 23.5176 9.22433 22.9678ZM8.31889 23.8954C7.14651 23.5127 6.06788 23.0446 5.10907 22.5043C3.92198 21.8355 2.89686 21.0418 2.10953 20.1474C3.48826 25.0106 7.23025 28.8438 11.9776 30.2562C11.1046 29.4496 10.3297 28.3995 9.67681 27.1834C9.14944 26.2013 8.69242 25.0963 8.31889 23.8954ZM15.4617 30.8027C13.6799 30.5458 11.9832 29.0791 10.6661 26.6261C10.2841 25.9146 9.93937 25.1284 9.63894 24.2797C11.4298 24.7406 13.3971 25.0125 15.4617 25.0545V30.8027ZM20.075 30.2562C20.948 29.4496 21.7228 28.3995 22.3758 27.1834C22.9031 26.2013 23.3601 25.0963 23.7336 23.8954C24.906 23.5127 25.9847 23.0446 26.9435 22.5043C28.1306 21.8355 29.1557 21.0418 29.943 20.1474C28.5643 25.0106 24.8223 28.8438 20.075 30.2562ZM22.4136 24.2797C22.1132 25.1284 21.7685 25.9146 21.3864 26.6261C20.0694 29.0791 18.3727 30.5458 16.5908 30.8027V25.0545C18.6554 25.0125 20.6227 24.7406 22.4136 24.2797ZM24.1088 22.5431C24.9373 22.2354 25.7048 21.8822 26.3993 21.4909C28.794 20.1417 30.2258 18.4037 30.4765 16.5783H24.8652C24.8242 18.6933 24.5588 20.7086 24.1088 22.5431ZM23.7359 16.5783C23.6893 18.8864 23.3649 21.0533 22.8282 22.9678C20.9592 23.5176 18.8439 23.8499 16.5908 23.8977V21.4012C17.431 19.1961 19.1458 17.4393 21.2983 16.5783H23.7359ZM24.8652 15.4217H30.4765C30.2258 13.5963 28.794 11.8582 26.3993 10.5091C25.7048 10.1178 24.9373 9.76464 24.1088 9.45688C24.5588 11.2914 24.8242 13.3067 24.8652 15.4217ZM22.8282 9.03216C23.3649 10.9467 23.6893 13.1136 23.7359 15.4217H21.2983C19.1458 14.5607 17.431 12.8039 16.5908 10.5988V8.10232C18.8439 8.15008 20.9592 8.4824 22.8282 9.03216ZM23.7336 8.10464C24.906 8.48728 25.9847 8.95544 26.9435 9.49568C28.1306 10.1645 29.1557 10.9582 29.943 11.8526C28.5643 6.98943 24.8223 3.15618 20.075 1.74382C20.948 2.55036 21.7228 3.60047 22.3758 4.81652C22.9031 5.79872 23.3601 6.90366 23.7336 8.10464ZM16.5908 1.19727C18.3727 1.45415 20.0694 2.92086 21.3864 5.37392C21.7685 6.08547 22.1132 6.87157 22.4136 7.72035C20.6227 7.25934 18.6554 6.98754 16.5908 6.9455V1.19727Z" fill="white"/>
</g>
<defs>
<clipPath id="clip0_78_213">
<rect width="82" height="32" fill="white"/>
</clipPath>
</defs>
</svg>
