<svg width="82" height="42" viewBox="0 0 82 42" fill="none" xmlns="http://www.w3.org/2000/svg">
<path d="M6.39362 8.89912C5.88785 7.61371 6.10742 6.13572 6.5733 4.89267C7.06347 3.58465 7.91699 2.28021 9.19267 1.59229C9.25596 2.97068 8.8349 4.33252 8.37482 5.56053C7.96108 6.66506 7.45341 7.8418 6.6151 8.75526C6.48629 9.44741 6.38757 10.1376 6.31815 10.8247C6.59599 10.0989 7.04652 9.4373 7.60865 8.90533C8.33239 8.22035 9.40898 7.69181 10.4196 8.00437C10.1236 9.12148 9.44886 10.1923 8.6498 10.9436C8.02087 11.5348 7.19061 12.2925 6.21266 12.3223C6.17238 13.3333 6.19515 14.3352 6.27834 15.3234C6.41631 14.6002 6.71191 13.9192 7.13903 13.4121C7.72576 12.7152 8.59574 11.8639 9.7068 12.0063C9.64614 13.1369 9.19514 14.2954 8.56708 15.1658C8.068 15.8576 7.40915 16.7392 6.47395 16.967C6.6237 17.938 6.83228 18.8929 7.09691 19.8273C7.09946 19.1119 7.25749 18.4096 7.571 17.8464C8.01283 17.0521 8.70099 16.0615 9.81332 15.9841C9.97637 17.0933 9.75545 18.3059 9.30978 19.2703C8.9536 20.0412 8.47871 21.0242 7.61311 21.431C7.9766 22.4363 8.40675 23.4135 8.89994 24.3568C8.72678 23.5438 8.73371 22.6871 8.93863 21.9163C9.22101 20.8536 9.92199 19.7374 11.0474 19.4134C11.4452 20.5866 11.3904 21.8959 11.1592 23.0883C10.969 24.0701 10.5953 25.2232 9.75768 25.8609C10.3053 26.7447 10.9112 27.5929 11.5719 28.3999C11.2169 27.6084 11.0405 26.7428 11.1351 25.9503C11.273 24.7957 11.5974 23.5606 12.7767 22.9451C13.4458 24.0995 13.6008 25.3945 13.6576 26.6736C13.7035 27.7077 13.5546 28.9832 12.8364 29.8244C13.6264 30.6458 14.4788 31.4145 15.3892 32.1234C14.8015 31.3694 14.3899 30.4846 14.3027 29.6095C14.1796 28.3732 14.2398 27.0123 15.3369 26.105C16.2752 27.0851 16.8352 28.5283 17.1096 29.7819C17.3522 30.8902 17.6056 32.2021 17.0278 33.2928C18.1865 34.0492 19.4234 34.7155 20.7312 35.2798C19.811 34.624 19.0577 33.7243 18.6988 32.7954C18.2285 31.5778 17.9376 30.1269 18.8537 28.9074C20.0811 29.6935 20.9832 31.0348 21.6938 32.2581C22.3037 33.3078 22.9349 34.7566 22.6217 36.0067C23.3458 36.2524 24.0886 36.4682 24.8491 36.6522L24.8039 36.8389C24.0405 36.6541 23.2948 36.4377 22.5678 36.1913C22.0585 37.6965 20.3899 38.1937 19.0405 38.4133C17.1178 38.7261 14.8284 38.12 13.1869 36.8991C14.0533 35.6748 15.8209 35.5506 17.1538 35.4569L17.1711 35.4557C18.6313 35.353 20.2105 35.4901 21.6789 35.8716C19.9826 35.2259 18.3954 34.414 16.9318 33.4596L16.9102 33.4936C16.1082 34.7941 14.498 34.8448 13.2341 34.7626C11.519 34.6509 9.5389 33.6081 8.39289 32.1666C9.47083 31.2208 11.063 31.4855 12.2966 31.6906L12.3026 31.6915C13.6795 31.9204 15.1841 32.4197 16.447 33.1886C16.3267 33.0938 16.209 32.9936 16.0946 32.8885C14.8667 32.013 13.734 31.0337 12.7061 29.966C12.6942 29.9779 12.682 29.9898 12.6699 30.0015C11.6704 31.007 10.2148 30.7437 9.07883 30.4165C7.55866 29.9786 5.98211 28.6576 5.22659 27.1411C6.39736 26.4851 7.7971 27.0257 8.88585 27.4533C10.0808 27.9226 11.3451 28.6733 12.3173 29.6303C12.217 29.5039 12.1214 29.3718 12.0311 29.2351C11.1275 28.2153 10.3146 27.1233 9.60004 25.9712L9.56422 25.9937C8.43357 26.7233 7.15256 26.1949 6.13727 25.6753C4.76071 24.9708 3.6545 23.4225 3.17651 21.8999C4.39768 21.5087 5.60419 22.2764 6.5421 22.8844C7.56789 23.5493 8.60697 24.4977 9.32021 25.5852C9.26783 25.4781 9.21902 25.3685 9.17404 25.2569C8.48875 24.0613 7.90656 22.8062 7.43526 21.5041L7.41098 21.5124L7.40899 21.5131C6.38096 21.9039 5.23615 21.2963 4.48979 20.63C3.45245 19.7039 2.7213 18.2802 2.54989 16.8893C3.6217 16.7505 4.6315 17.5797 5.32189 18.287C6.11657 19.101 6.82981 20.0631 7.26831 21.1318C7.23631 21.0157 7.20885 20.8978 7.18576 20.7787C6.78674 19.5551 6.48446 18.2933 6.28519 17.0033L6.26967 17.0052L6.26441 17.0061C5.17755 17.1875 4.1727 16.3612 3.57234 15.5593C2.73005 14.434 2.29585 12.8765 2.40468 11.4649C3.48732 11.5406 4.3117 12.5706 4.84629 13.4037C5.46503 14.3682 5.97813 15.4598 6.20287 16.6017C6.19603 16.5109 6.19197 16.4195 6.19053 16.3278C6.0255 15.0149 5.96666 13.675 6.02048 12.3186L6.01738 12.3184C4.91237 12.2786 4.09571 11.2527 3.67409 10.3426C3.07079 9.04035 2.97366 7.39422 3.37634 6.00691C4.42952 6.30251 5.01666 7.51062 5.36321 8.44056C5.76278 9.51277 6.04166 10.6822 6.04389 11.8448C6.10137 10.8694 6.21712 9.88631 6.39362 8.89912Z" fill="#BFBEE0"/>
<path d="M28.1574 6.49268V11.1498C28.1574 13.1981 26.3023 14.1836 23.4907 14.1836C20.8626 14.1836 18.9785 13.2078 18.9785 10.9083V6.49268H21.5969V10.9083C21.5969 11.7295 22.3022 12.2416 23.5969 12.2416C24.8337 12.2416 25.568 11.7102 25.568 10.9179V6.49268H28.1574Z" fill="#BFBEE0"/>
<path d="M36.878 12.058V14.0774H29.6411V6.49268H32.2595V12.058H36.878Z" fill="#BFBEE0"/>
<path d="M44.6598 8.39611V6.49268H35.6064V8.39611H38.8046V14.0774H41.452V8.39611H44.6598Z" fill="#BFBEE0"/>
<path fill-rule="evenodd" clip-rule="evenodd" d="M53.9474 7.2657C54.2953 7.62316 54.4601 8.11596 54.4601 8.80189C54.4601 9.39134 54.3152 9.89376 54.0732 10.2319C53.8025 10.599 53.387 10.9083 52.8751 10.9856L55.1655 14.0774H52.2859L50.4015 11.401H48.0539V14.0774H45.4741V6.49268H51.5129C52.7111 6.49268 53.4936 6.78254 53.9474 7.2657ZM51.8608 9.43966C51.9285 9.32367 51.9476 9.16906 51.9476 9.04351C51.9476 8.89854 51.9285 8.74393 51.8608 8.64737C51.7255 8.39611 51.4548 8.32852 51.0488 8.32852H48.0636V9.71018H51.0973C51.5129 9.71018 51.7645 9.63288 51.8608 9.43966Z" fill="#BFBEE0"/>
<path fill-rule="evenodd" clip-rule="evenodd" d="M58.6506 12.6764H62.7475L63.4138 14.0774H66.2066L62.3805 6.49268H59.2597L55.2114 14.0774H57.9453L58.6506 12.6764ZM61.9259 10.9758H59.5009L60.4578 9.14979L60.7476 8.45407L61.0183 9.14008L61.9259 10.9758Z" fill="#BFBEE0"/>
<path fill-rule="evenodd" clip-rule="evenodd" d="M53.6708 15.5059C52.0499 15.5059 51.1973 16.2741 51.1973 17.403C51.1973 18.6772 52.0921 19.3236 53.6708 19.3236C55.4087 19.3236 56.1396 18.5741 56.1396 17.403C56.1396 16.2132 55.3148 15.5059 53.6708 15.5059ZM53.6708 18.3821C52.7481 18.3821 52.4806 18.0026 52.4806 17.4171C52.4806 16.8409 52.7712 16.4615 53.666 16.4615C54.6453 16.4615 54.865 16.8878 54.865 17.4171C54.865 17.9792 54.5983 18.3821 53.6708 18.3821Z" fill="#BFBEE0"/>
<path d="M48.7952 19.2671V17.0889H46.35V17.8806H47.6569C47.6476 17.9415 47.6007 18.0586 47.5398 18.1288C47.404 18.2881 47.0433 18.4286 46.5748 18.4286C46.0877 18.4286 45.7739 18.3021 45.6053 18.1054C45.4928 17.9602 45.4272 17.7541 45.4272 17.445C45.4272 17.1217 45.4928 16.9016 45.6193 16.7564C45.802 16.5503 46.1111 16.4613 46.5655 16.4613C46.9731 16.4613 47.2541 16.5549 47.3853 16.672C47.4696 16.7423 47.5351 16.8407 47.5492 16.9062H48.7624C48.7578 16.7891 48.7203 16.6018 48.6547 16.466C48.3643 15.8757 47.6897 15.5244 46.5421 15.5244C45.5444 15.5244 44.8745 15.8288 44.5045 16.288C44.2608 16.6018 44.1484 16.9952 44.1484 17.4356C44.1484 17.9228 44.2796 18.3396 44.4951 18.6161C44.8604 19.0892 45.5115 19.3233 46.2938 19.3233C46.9825 19.3233 47.4555 19.1594 47.7553 18.9112L47.7881 19.2671H48.7952Z" fill="#BFBEE0"/>
<path d="M36.0347 17.0425C36.9856 17.1455 37.3931 17.4828 37.3931 18.1246C37.3931 18.9022 36.6343 19.3237 35.1399 19.3237C33.7487 19.3237 33.1492 18.9303 32.9196 18.415C32.8681 18.2932 32.8447 18.1433 32.8306 18.0496H34.1797C34.1891 18.1058 34.2219 18.1901 34.2687 18.2463C34.3811 18.3822 34.6949 18.4618 35.2289 18.4618C35.9176 18.4618 36.0815 18.3634 36.0815 18.1808C36.0815 17.984 35.9129 17.9419 35.2898 17.8763C35.0416 17.8529 34.6481 17.8154 34.4842 17.8014C33.2944 17.6936 32.8541 17.3235 32.8541 16.6912C32.8541 16.0353 33.6316 15.5342 35.0509 15.5342C36.311 15.5342 36.8966 15.9089 37.1402 16.3773C37.2151 16.5179 37.2619 16.6771 37.276 16.7895H35.9269C35.9222 16.738 35.9035 16.6865 35.852 16.6209C35.7489 16.4851 35.4866 16.3961 35.0181 16.3961C34.3577 16.3961 34.1844 16.4757 34.1844 16.6443C34.1844 16.8317 34.4046 16.8739 35.1399 16.9535C35.4257 16.9769 35.8801 17.0237 36.0347 17.0425Z" fill="#BFBEE0"/>
<path fill-rule="evenodd" clip-rule="evenodd" d="M22.5862 15.9042C22.8344 16.1009 22.9749 16.4335 22.9749 16.9159C22.9749 17.3095 22.8766 17.6045 22.6892 17.8106C22.4363 18.101 22.0194 18.2322 21.476 18.2369C21.3073 18.2416 19.8646 18.2369 19.8646 18.2369V19.2674H18.6045V15.5903H21.4572C21.9631 15.5903 22.3473 15.6933 22.5862 15.9042ZM21.654 17.2017C21.6914 17.1362 21.7102 17.0518 21.7102 16.9347C21.7102 16.8129 21.6867 16.7098 21.6446 16.6536C21.565 16.5365 21.4151 16.4803 21.1715 16.4803H19.8552V17.3797H21.1621C21.4244 17.3797 21.579 17.3188 21.654 17.2017Z" fill="#BFBEE0"/>
<path fill-rule="evenodd" clip-rule="evenodd" d="M27.5847 15.9651C27.7534 16.1384 27.833 16.3773 27.833 16.7098C27.833 16.9956 27.7627 17.2392 27.6456 17.4031C27.5145 17.5811 27.313 17.731 27.0647 17.7685L28.1749 19.2674H26.779L25.8655 17.9699H24.7273V19.2674H23.4766V15.5903H26.4043C26.9851 15.5903 27.3646 15.7308 27.5847 15.9651ZM26.5729 17.019C26.6057 16.9628 26.615 16.8878 26.615 16.8269C26.615 16.7567 26.6057 16.6817 26.5729 16.6349C26.5073 16.5131 26.3762 16.4803 26.1795 16.4803H24.732V17.1502H26.2029C26.4043 17.1502 26.5261 17.1127 26.5729 17.019Z" fill="#BFBEE0"/>
<path d="M32.4511 19.2674V18.3541H29.8138V17.8762H32.3433V16.9815H29.8138V16.5084H32.4183V15.5903H28.5771V19.2674H32.4511Z" fill="#BFBEE0"/>
<path d="M41.9517 16.5131V15.5903H37.5625V16.5131H39.1129V19.2674H40.3964V16.5131H41.9517Z" fill="#BFBEE0"/>
<path d="M43.6393 15.5903V19.2674H42.3511V15.5903H43.6393Z" fill="#BFBEE0"/>
<path d="M50.6888 15.5903V19.2674H49.4004V15.5903H50.6888Z" fill="#BFBEE0"/>
<path d="M61.11 15.5903V17.8481C61.11 18.8412 60.2103 19.319 58.8474 19.319C57.5736 19.319 56.6597 18.8459 56.6597 17.731V15.5903H57.9295V17.731C57.9295 18.1291 58.271 18.3775 58.8991 18.3775C59.4986 18.3775 59.8545 18.1198 59.8545 17.7357V15.5903H61.11Z" fill="#BFBEE0"/>
<path d="M66.167 18.1246C66.167 17.4828 65.7594 17.1455 64.8089 17.0425C64.6536 17.0237 64.1998 16.9769 63.914 16.9535C63.1784 16.8739 62.9579 16.8317 62.9579 16.6443C62.9579 16.4757 63.1314 16.3961 63.7922 16.3961C64.2603 16.3961 64.5231 16.4851 64.6258 16.6209C64.6775 16.6865 64.6958 16.738 64.7006 16.7895H66.05C66.0357 16.6771 65.9887 16.5179 65.9139 16.3773C65.6703 15.9089 65.0851 15.5342 63.8249 15.5342C62.4054 15.5342 61.6276 16.0353 61.6276 16.6912C61.6276 17.3235 62.0686 17.6936 63.258 17.8014L63.3345 17.8081L63.4618 17.8198L64.0637 17.8763C64.6871 17.9419 64.855 17.984 64.855 18.1808C64.855 18.3634 64.6918 18.4618 64.0032 18.4618C63.469 18.4618 63.1553 18.3822 63.0423 18.2463C62.9961 18.1901 62.9627 18.1058 62.9539 18.0496H61.6045C61.6188 18.1433 61.6419 18.2932 61.6937 18.415C61.9229 18.9303 62.5224 19.3237 63.914 19.3237C65.4083 19.3237 66.167 18.9022 66.167 18.1246Z" fill="#BFBEE0"/>
<path fill-rule="evenodd" clip-rule="evenodd" d="M33.4102 20.6753C32.3568 20.6753 31.8027 21.1746 31.8027 21.9083C31.8027 22.7364 32.3842 23.1565 33.4102 23.1565C34.5397 23.1565 35.0146 22.6694 35.0146 21.9083C35.0146 21.135 34.4788 20.6753 33.4102 20.6753ZM33.4102 22.5446C32.8105 22.5446 32.6369 22.2979 32.6369 21.9174C32.6369 21.543 32.8257 21.2963 33.4071 21.2963C34.0434 21.2963 34.1865 21.5734 34.1865 21.9174C34.1865 22.2827 34.013 22.5446 33.4102 22.5446Z" fill="#BFBEE0"/>
<path d="M27.5522 22.3769C27.5522 21.9598 27.2873 21.7406 26.6693 21.6736C26.5688 21.6614 26.2736 21.631 26.0878 21.6158C25.6098 21.564 25.4668 21.5366 25.4668 21.4149C25.4668 21.3053 25.5794 21.2535 26.0087 21.2535C26.3131 21.2535 26.4836 21.3113 26.5506 21.3996C26.5841 21.4423 26.5962 21.4757 26.5993 21.5092H27.4761C27.4669 21.4361 27.4365 21.3326 27.3878 21.2413C27.2295 20.9369 26.8489 20.6934 26.03 20.6934C25.1076 20.6934 24.6022 21.0191 24.6022 21.4453C24.6022 21.8563 24.8883 22.0968 25.6616 22.1668C25.7682 22.176 26.0239 22.2003 26.1853 22.2155C26.5902 22.2581 26.6997 22.2856 26.6997 22.4134C26.6997 22.5322 26.5932 22.5961 26.1457 22.5961C25.7986 22.5961 25.5946 22.5443 25.5216 22.456C25.4911 22.4195 25.4698 22.3647 25.4638 22.3282H24.5869C24.5961 22.3891 24.6113 22.4865 24.6448 22.5657C24.794 22.9005 25.1837 23.1562 26.0878 23.1562C27.059 23.1562 27.5522 22.8823 27.5522 22.3769Z" fill="#BFBEE0"/>
<path fill-rule="evenodd" clip-rule="evenodd" d="M21.4738 22.444C21.4738 22.6084 21.4281 22.7698 21.3368 22.8763C21.1968 23.0468 20.9349 23.1198 20.5971 23.1198H18.4751V20.73H20.5392C20.868 20.73 21.0781 20.8092 21.1938 20.9279C21.2973 21.0314 21.3429 21.1684 21.3429 21.3236C21.3429 21.479 21.3064 21.6068 21.2273 21.7012C21.1633 21.7804 21.0537 21.8412 20.938 21.8565C21.1085 21.8777 21.2699 21.963 21.3612 22.0817C21.4373 22.17 21.4738 22.304 21.4738 22.444ZM20.4479 21.6068C20.4783 21.5733 20.4966 21.5246 20.4966 21.4668C20.4966 21.4089 20.4783 21.3602 20.4387 21.3267C20.3961 21.2871 20.3169 21.2719 20.2012 21.2719H19.2727V21.6616H20.2226C20.3261 21.6616 20.4053 21.6464 20.4479 21.6068ZM20.3109 22.578C20.4539 22.578 20.5392 22.5597 20.5879 22.5141C20.6183 22.4836 20.6305 22.438 20.6305 22.3801C20.6305 22.3192 20.6153 22.2736 20.5788 22.237C20.5331 22.1975 20.4539 22.1792 20.32 22.1792H19.2727V22.578H20.3109Z" fill="#BFBEE0"/>
<path d="M24.3405 22.5263V23.1198H21.8228V20.73H24.3191V21.3267H22.6264V21.6342H24.2704V22.2157H22.6264V22.5263H24.3405Z" fill="#BFBEE0"/>
<path d="M30.5147 20.73V21.3298H29.5039V23.1198H28.6698V21.3298H27.6621V20.73H30.5147Z" fill="#BFBEE0"/>
<path d="M37.8005 20.73V21.3358H36.1779V21.6738H37.7244V22.2736H36.1779V23.1198H35.3589V20.73H37.8005Z" fill="#BFBEE0"/>
<path d="M41.9253 21.3298V20.73H39.0728V21.3298H40.0805V23.1198H40.9147V21.3298H41.9253Z" fill="#BFBEE0"/>
<path d="M45.0378 20.73V23.1198H44.2219V22.2522H42.998V23.1198H42.1821V20.73H42.998V21.6007H44.2219V20.73H45.0378Z" fill="#BFBEE0"/>
<path d="M48.0387 23.1198V22.5263H46.3247V22.2157H47.9687V21.6342H46.3247V21.3267H48.0174V20.73H45.521V23.1198H48.0387Z" fill="#BFBEE0"/>
<path d="M53.0859 20.73H53.8741L53.0008 23.1198H52.1059C52.1059 23.1198 51.6275 21.6921 51.6243 21.6524C51.6219 21.6921 51.1402 23.1198 51.1402 23.1198H50.2486L49.3535 20.73H50.239C50.239 20.73 50.7573 22.2339 50.7573 22.2705C50.7573 22.2339 51.235 20.73 51.235 20.73H52.0908C52.0908 20.73 52.5717 22.2339 52.5717 22.2705C52.5717 22.2339 53.0859 20.73 53.0859 20.73Z" fill="#BFBEE0"/>
<path fill-rule="evenodd" clip-rule="evenodd" d="M55.4374 20.6753C54.3842 20.6753 53.8301 21.1746 53.8301 21.9083C53.8301 22.7364 54.4112 23.1565 55.4374 23.1565C56.5671 23.1565 57.0416 22.6694 57.0416 21.9083C57.0416 21.135 56.5058 20.6753 55.4374 20.6753ZM55.4374 22.5446C54.838 22.5446 54.6644 22.2979 54.6644 21.9174C54.6644 21.543 54.8531 21.2963 55.4343 21.2963C56.0711 21.2963 56.2137 21.5734 56.2137 21.9174C56.2137 22.2827 56.0401 22.5446 55.4374 22.5446Z" fill="#BFBEE0"/>
<path fill-rule="evenodd" clip-rule="evenodd" d="M60.0564 20.9736C60.1655 21.0862 60.2172 21.2415 60.2172 21.4576C60.2172 21.6434 60.1718 21.8016 60.0954 21.9082C60.0102 22.0239 59.8797 22.1214 59.7181 22.1456L60.4393 23.1198H59.5326L58.9387 22.2766H58.1991V23.1198H57.3862V20.73H59.2889C59.6663 20.73 59.9131 20.8214 60.0564 20.9736ZM59.3988 21.6586C59.4195 21.622 59.4259 21.5733 59.4259 21.5337C59.4259 21.488 59.4195 21.4394 59.3988 21.4089C59.3558 21.3298 59.2706 21.3084 59.1425 21.3084H58.2023V21.7438H59.1576C59.2889 21.7438 59.3678 21.7195 59.3988 21.6586Z" fill="#BFBEE0"/>
<path d="M62.9817 23.1198V22.4836H61.5264V20.73H60.7017V23.1198H62.9817Z" fill="#BFBEE0"/>
<path fill-rule="evenodd" clip-rule="evenodd" d="M66.2099 21.8808C66.2099 22.2522 66.1733 22.4532 66.0642 22.6419C65.8994 22.9433 65.5738 23.1198 64.9982 23.1198H63.3057V20.73H64.9799C65.5523 20.73 65.8907 20.8914 66.0578 21.1684C66.1765 21.3541 66.2099 21.552 66.2099 21.8808ZM64.843 22.5323C65.1017 22.5323 65.2482 22.4714 65.3366 22.3375C65.3915 22.2553 65.4066 22.0635 65.4066 21.8961C65.4034 21.7438 65.3851 21.5825 65.3366 21.5094C65.2418 21.3663 65.0993 21.3146 64.8493 21.3146H64.1217V22.5323H64.843Z" fill="#BFBEE0"/>
<path d="M33.5522 34.7432H32.2907C32.2907 34.7432 31.4675 37.1494 31.4675 37.2079C31.4675 37.1494 30.6979 34.7432 30.6979 34.7432H29.3291C29.3291 34.7432 28.5644 37.1494 28.5644 37.2079C28.5644 37.1494 27.7363 34.7432 27.7363 34.7432H26.3188L27.7509 38.5668H29.1781C29.1781 38.5668 29.9477 36.2824 29.9526 36.2191C29.9575 36.2824 30.7222 38.5668 30.7222 38.5668H32.1542L33.5522 34.7432Z" fill="#BFBEE0"/>
<path d="M35.2785 38.5668V34.7432H33.939V38.5668H35.2785Z" fill="#BFBEE0"/>
<path d="M40.4886 34.7432V38.5668H39.1832L37.2884 36.4383V38.5668H36.0317V34.7432H37.4053L39.2416 36.8231V34.7432H40.4886Z" fill="#BFBEE0"/>
<path d="M45.7069 38.5668V34.7432H44.4599V36.8231L42.6236 34.7432H41.25V38.5668H42.5067V36.4383L44.4015 38.5668H45.7069Z" fill="#BFBEE0"/>
<path d="M50.4969 37.617V38.5668H46.4683V34.7432H50.4627V35.6979H47.7542V36.1899H50.3847V37.1202H47.7542V37.617H50.4969Z" fill="#BFBEE0"/>
<path fill-rule="evenodd" clip-rule="evenodd" d="M55.6451 35.9073C55.6451 35.5615 55.5623 35.3131 55.3872 35.1329C55.1579 34.8893 54.7638 34.7432 54.1596 34.7432H51.1152V38.5668H52.4161V37.2176H53.5999L54.5497 38.5668H56.001L54.8466 37.0082C55.1046 36.9692 55.314 36.8133 55.4509 36.6282C55.5719 36.4578 55.6451 36.2044 55.6451 35.9073ZM54.3785 36.0291C54.3785 36.0924 54.369 36.1704 54.3347 36.2288C54.2862 36.3262 54.1596 36.3652 53.9502 36.3652H52.4209V35.6687H53.9255C54.1301 35.6687 54.2671 35.7027 54.3347 35.8294C54.369 35.8781 54.3785 35.956 54.3785 36.0291Z" fill="#BFBEE0"/>
<path d="M29.663 27.9969L29.1348 26.3711L28.6065 27.9969H26.897L28.28 29.0017L27.7518 30.6275L29.1348 29.6228L30.5177 30.6275L29.9895 29.0017L31.3725 27.9969H29.663Z" fill="#BFBEE0"/>
<path d="M35.2331 26.3701L35.7722 27.9959H37.5165L36.1054 29.0008L36.6444 30.6266L35.2331 29.6218L33.8219 30.6266L34.361 29.0008L32.9497 27.9959H34.6941L35.2331 26.3701Z" fill="#BFBEE0"/>
<path d="M41.8225 27.9959L41.2835 26.3701L40.7445 27.9959H39L40.4113 29.0008L39.8722 30.6266L41.2835 29.6218L42.6947 30.6266L42.1556 29.0008L43.5669 27.9959H41.8225Z" fill="#BFBEE0"/>
<path d="M47.3337 26.3701L47.8728 27.9959H49.6171L48.2059 29.0008L48.745 30.6266L47.3337 29.6218L45.9225 30.6266L46.4616 29.0008L45.0503 27.9959H46.7947L47.3337 26.3701Z" fill="#BFBEE0"/>
<path d="M53.9608 27.9959L53.4322 26.3701L52.9036 27.9959H51.1943L52.5772 29.0008L52.0494 30.6266L53.4322 29.6218L54.8151 30.6266L54.2873 29.0008L55.6701 27.9959H53.9608Z" fill="#BFBEE0"/>
<path d="M76.1392 8.93444C76.6447 7.64911 76.425 6.17096 75.9592 4.9279C75.4688 3.61996 74.6154 2.31537 73.34 1.62744C73.2763 3.00592 73.6975 4.36767 74.1576 5.59568C74.5716 6.70014 75.0787 7.8768 75.9171 8.79018C76.046 9.48217 76.1447 10.1722 76.214 10.8591C75.9362 10.1336 75.4864 9.47237 74.9243 8.94057C74.2006 8.25551 73.1235 7.72705 72.1132 8.0396C72.4094 9.15663 73.0837 10.2276 73.883 10.9788C74.5119 11.5701 75.3423 12.3276 76.3199 12.3575C76.3605 13.3686 76.3374 14.3706 76.2538 15.3589C76.1161 14.6357 75.8207 13.9547 75.3932 13.4475C74.8065 12.7506 73.9363 11.8993 72.8257 12.0418C72.8862 13.1724 73.3376 14.3308 73.9658 15.2013C74.4641 15.8931 75.1233 16.7748 76.0588 17.0025C75.9091 17.9734 75.7005 18.9282 75.4354 19.8625C75.433 19.1471 75.2754 18.4448 74.9617 17.8816C74.5199 17.0874 73.8312 16.0968 72.7191 16.0193C72.5558 17.1285 72.7772 18.3411 73.223 19.3055C73.5789 20.0764 74.0541 21.0595 74.9195 21.4662C74.5557 22.4717 74.1258 23.4492 73.6322 24.3925C73.8057 23.5793 73.7986 22.7225 73.594 21.9514C73.3114 20.8888 72.6108 19.7725 71.4851 19.4486C71.087 20.6219 71.1419 21.931 71.3736 23.1235C71.5639 24.1053 71.9373 25.2584 72.7748 25.8962C72.2271 26.7804 71.6212 27.629 70.9596 28.4364C71.3155 27.6446 71.4914 26.7785 71.3967 25.9857C71.259 24.831 70.935 23.596 69.7559 22.9806C69.0864 24.1349 68.9311 25.43 68.8746 26.7091C68.8284 27.7432 68.9773 29.0188 69.6962 29.8601C68.9057 30.6812 68.0538 31.4497 67.1438 32.1584C67.7314 31.4044 68.143 30.5197 68.2298 29.6448C68.3531 28.4085 68.2934 27.0476 67.1956 26.1403C66.2578 27.1203 65.6973 28.5636 65.4234 29.8171C65.1806 30.9254 64.9275 32.2373 65.5046 33.3281C64.3463 34.0846 63.1091 34.751 61.8011 35.3154C62.7214 34.6596 63.4745 33.7597 63.8336 32.8307C64.3041 31.6131 64.5947 30.1621 63.6791 28.9426C62.4515 29.7288 61.5495 31.07 60.8386 32.2934C60.2288 33.3431 59.5975 34.792 59.9111 36.0421C59.1867 36.2878 58.4439 36.5036 57.6836 36.6876L57.729 36.8743C58.4917 36.6895 59.2376 36.4731 59.9645 36.2267C60.474 37.7318 62.1426 38.2292 63.4921 38.4487C65.4147 38.7615 67.7043 38.1555 69.3459 36.9345C68.4789 35.7101 66.7116 35.586 65.3789 35.4922L65.3613 35.4911C63.9013 35.3884 62.3218 35.5255 60.8537 35.9071C62.5495 35.2614 64.1369 34.4493 65.601 33.4948L65.6209 33.5266C66.4226 34.8292 68.0339 34.8802 69.2981 34.7979C71.0138 34.6863 72.9937 33.6434 74.1393 32.2019C73.0614 31.2563 71.4699 31.5208 70.236 31.7258L70.2296 31.7269C68.8531 31.9557 67.3492 32.4548 66.0866 33.2234C66.2068 33.1287 66.3238 33.0287 66.4385 32.9237C67.6661 32.0483 68.7982 31.0692 69.826 30.0016C69.8403 30.0158 69.8546 30.0299 69.869 30.0438C70.8689 31.0414 72.3202 30.7782 73.4539 30.4517C74.9744 30.0139 76.5508 28.6929 77.3063 27.1763C76.1352 26.5203 74.7356 27.0608 73.6473 27.4885C72.4508 27.9582 71.1857 28.7098 70.2129 29.6681C70.3132 29.5415 70.4095 29.4092 70.5003 29.2723C71.4039 28.2519 72.2175 27.1592 72.9324 26.0064L72.9635 26.0256L72.9714 26.0306C74.1011 26.7577 75.3813 26.2298 76.3955 25.7105C77.772 25.006 78.8786 23.4578 79.3563 21.9351C78.135 21.544 76.9289 22.3117 75.9911 22.9197C74.9641 23.585 73.9244 24.5339 73.211 25.6223C73.2636 25.5149 73.313 25.4051 73.3583 25.2932C74.0438 24.0972 74.6257 22.8417 75.0971 21.5394L75.1217 21.5476L75.1257 21.5492C76.1535 21.9383 77.2975 21.3311 78.0435 20.6652C79.08 19.7392 79.8117 18.3155 79.9828 16.9246C78.9112 16.7857 77.901 17.615 77.2107 18.3222C76.4162 19.1368 75.7021 20.0995 75.2634 21.169C75.2961 21.0523 75.3239 20.9337 75.347 20.8139C75.7459 19.5905 76.0484 18.3287 76.2474 17.0388L76.2777 17.0428C77.3604 17.2181 78.3619 16.3942 78.9606 15.5945C79.8029 14.4692 80.2368 12.9118 80.1277 11.5001C79.0458 11.5759 78.221 12.6057 77.6868 13.4389C77.0674 14.4039 76.5539 15.4961 76.3294 16.6388C76.3366 16.5474 76.3406 16.4555 76.3422 16.3633C76.507 15.0503 76.5659 13.7103 76.5118 12.3539C77.6176 12.3151 78.4368 11.2885 78.8587 10.378C79.4614 9.07583 79.5585 7.42962 79.1564 6.04239C78.1032 6.33798 77.5157 7.54593 77.1693 8.47588C76.7697 9.54809 76.4911 10.7177 76.4887 11.8803C76.4313 10.9049 76.3151 9.9217 76.1392 8.93444Z" fill="#BFBEE0"/>
</svg>
