<svg width="82" height="26" viewBox="0 0 82 26" fill="none" xmlns="http://www.w3.org/2000/svg">
<path d="M77.7238 0.409544C77.7238 -0.366504 78.3529 -0.996265 79.1289 -0.996265H80.0663C80.4392 -0.996265 80.7968 -0.848153 81.0604 -0.584513C81.324 -0.320873 81.4721 0.0367 81.4721 0.409544C81.4721 0.782387 81.324 1.13996 81.0604 1.4036C80.7968 1.66724 80.4392 1.81535 80.0663 1.81535H79.1289C78.9443 1.81535 78.7616 1.77898 78.591 1.70833C78.4205 1.63767 78.2656 1.53411 78.1351 1.40356C78.0046 1.27301 77.9011 1.11803 77.8305 0.947473C77.76 0.776917 77.7237 0.594126 77.7238 0.409544ZM38.3697 8.37404C38.3697 13.5486 34.1752 17.7437 29 17.7437C23.8255 17.7437 19.6304 13.5486 19.6304 8.37404C19.6304 3.1982 23.8255 -0.995609 29 -0.995609C34.1752 -0.995609 38.3697 3.1982 38.3697 8.37404ZM17.8028 8.32746C18.321 8.32746 18.7448 8.7473 18.6929 9.26292C18.5158 11.0274 17.8416 12.7055 16.7486 14.102C15.6556 15.4985 14.1888 16.5562 12.5185 17.1521C10.8482 17.7479 9.04311 17.8576 7.31299 17.4682C5.58287 17.0789 3.99877 16.2065 2.7448 14.9525C1.49082 13.6986 0.618463 12.1145 0.229108 10.3843C-0.160248 8.65423 -0.0506133 6.84914 0.545271 5.17886C1.14116 3.50858 2.19882 2.04171 3.59534 0.948715C4.99186 -0.144278 6.66989 -0.818505 8.43442 -0.995609C8.94938 -1.04809 9.36987 -0.623 9.36987 -0.106072V7.39004C9.36987 7.90828 9.78971 8.32746 10.3073 8.32746H17.8028ZM51.4877 19.6179C52.2332 19.6179 52.9482 19.914 53.4753 20.4412C54.0025 20.9683 54.2987 21.6833 54.2987 22.4288C54.2987 23.1744 54.0025 23.8893 53.4753 24.4165C52.9482 24.9436 52.2332 25.2398 51.4877 25.2398H46.8032C46.0577 25.2398 45.3427 24.9436 44.8156 24.4165C44.2884 23.8893 43.9922 23.1744 43.9922 22.4288C43.9922 21.6833 44.2884 20.9683 44.8156 20.4412C45.3427 19.914 46.0577 19.6179 46.8032 19.6179H51.4877ZM48.6767 17.7437C53.8519 17.7437 58.047 13.5486 58.047 8.37404C58.0493 6.78452 57.6453 5.22079 56.8735 3.83124L58.4216 2.28308C58.5999 2.10467 58.7414 1.89288 58.8379 1.65981C58.9343 1.42674 58.984 1.17695 58.9839 0.924696C58.9838 0.672446 58.9341 0.422678 58.8375 0.189652C58.7409 -0.0433729 58.5994 -0.255092 58.421 -0.433417C58.2425 -0.611741 58.0308 -0.753179 57.7977 -0.849655C57.5646 -0.94613 57.3148 -0.995754 57.0626 -0.995693C56.8103 -0.995632 56.5606 -0.945888 56.3275 -0.8493C56.0945 -0.752711 55.8828 -0.611171 55.7045 -0.43276L54.3531 0.918599C52.7228 -0.32655 50.7275 -0.999565 48.6761 -0.996265C43.5022 -0.995609 39.3077 3.1982 39.3077 8.37404C39.3077 13.5486 43.5029 17.7437 48.6774 17.7437H48.6767ZM77.7238 8.37404C77.7238 13.5486 73.5286 17.7437 68.3535 17.7437C63.1789 17.7437 58.9838 13.5486 58.9838 8.37404C58.9838 3.1982 63.1789 -0.995609 68.3535 -0.995609C73.5286 -0.995609 77.7238 3.19886 77.7238 8.37404Z" fill="url(#paint0_linear_78_283)"/>
<defs>
<linearGradient id="paint0_linear_78_283" x1="0.00022481" y1="9.4958" x2="78.0642" y2="9.4958" gradientUnits="userSpaceOnUse">
<stop stop-color="#64C2DB"/>
<stop offset="0.307" stop-color="#7476ED"/>
<stop offset="0.604" stop-color="#C994DF"/>
<stop offset="1" stop-color="#E56F8C"/>
</linearGradient>
</defs>
</svg>
