<svg width="70" height="44" viewBox="0 0 70 44" fill="none" xmlns="http://www.w3.org/2000/svg">
<g clip-path="url(#clip0_78_284)">
<path d="M65.5266 5.40859C65.5266 5.45989 65.5266 5.52402 65.5135 5.5625C65.4479 6.06271 65.4479 6.56292 65.4872 7.07596C65.5135 7.20422 65.5397 7.33248 65.6447 7.43509C65.8152 7.62747 66.0775 7.589 66.1825 7.35813C66.235 7.2427 66.235 7.12726 66.2087 7.01183C66.0775 6.52444 66.0513 6.01141 66.0382 5.51119C66.0382 5.48554 66.0382 5.44706 66.0382 5.40859C66.1825 5.39576 66.3137 5.38293 66.4317 5.38293C66.5236 5.37011 66.6023 5.35728 66.6679 5.3188C66.8646 5.2162 66.8646 4.99816 66.6547 4.89555C66.576 4.85707 66.4711 4.84424 66.3793 4.84424C66.0513 4.85707 65.7234 4.85707 65.3954 4.85707C65.2774 4.85707 65.1593 4.8699 65.0412 4.88272C64.9756 4.89555 64.8969 4.89555 64.8445 4.93403C64.7526 4.9725 64.7002 5.03663 64.7002 5.12641C64.7133 5.2162 64.7526 5.2675 64.8445 5.30598C64.8969 5.34446 64.9625 5.35728 65.0281 5.35728C65.1855 5.37011 65.3561 5.39576 65.5266 5.40859ZM69.134 5.99858C69.134 6.01141 69.1471 6.02423 69.1471 6.02423C69.1996 6.37053 69.2521 6.70401 69.2914 7.03748C69.3046 7.15291 69.3177 7.25552 69.3964 7.3453C69.5669 7.56334 69.8293 7.53769 69.9473 7.30683C69.9998 7.19139 70.0129 7.07596 69.9867 6.9477C69.908 6.56292 69.8686 6.17814 69.7899 5.80619C69.7374 5.57532 69.6719 5.35728 69.6063 5.15207C69.5669 5.02381 69.4751 4.93402 69.3177 4.9212C69.1603 4.89555 69.0422 4.9725 68.9766 5.08794C68.8979 5.19054 68.8323 5.29315 68.7798 5.40859C68.688 5.6138 68.6093 5.81902 68.5044 6.01141C68.4912 6.06271 68.4781 6.10119 68.4519 6.13966C68.4388 6.11401 68.4257 6.10119 68.4257 6.10119C68.2551 5.78054 68.0977 5.45989 67.9272 5.15207C67.9009 5.12641 67.8878 5.10076 67.8747 5.07511C67.796 4.95968 67.7042 4.89555 67.5599 4.89555C67.4287 4.90837 67.3237 4.98533 67.2582 5.10076C67.2319 5.15207 67.2319 5.19054 67.2188 5.24185C67.1663 5.65228 67.1007 6.06271 67.0483 6.47314C67.022 6.70401 67.0089 6.93487 67.0089 7.16574C66.9958 7.21704 67.0089 7.28117 67.0351 7.33248C67.0614 7.43508 67.1401 7.49922 67.245 7.51204C67.3762 7.52487 67.468 7.48639 67.5074 7.38378C67.5467 7.30683 67.5599 7.2427 67.573 7.17857C67.6255 6.9477 67.6648 6.72966 67.7042 6.51162C67.7304 6.38336 67.7435 6.28075 67.7829 6.13966C67.8091 6.19097 67.8353 6.22945 67.8616 6.26792C67.9796 6.42184 68.0977 6.57575 68.242 6.70401C68.3863 6.80661 68.5044 6.79379 68.6224 6.67835C68.6487 6.6527 68.6618 6.63988 68.688 6.61422C68.8061 6.43466 68.9504 6.2551 69.0684 6.07553C69.0947 6.04988 69.1078 6.02423 69.134 5.99858Z" fill="white"/>
<path d="M38.9086 5.66029C38.8174 5.90404 38.8 6.07965 38.8421 6.22561C38.8886 6.42409 39.0093 6.48907 39.1731 6.43859C40.7139 6.06606 44.0926 7.12346 45.3435 7.41817C45.6385 7.48005 45.8785 7.1077 45.6772 6.77386C45.3834 6.45056 42.0062 5.06639 40.7176 4.99092C40.2125 4.96301 39.3095 4.83637 38.9086 5.66029Z" fill="white"/>
<path d="M52.1135 1.17977C52.2777 1.27244 52.3695 1.36084 52.4148 1.45961C52.4823 1.58917 52.4467 1.67881 52.3333 1.72455C51.3148 2.21057 49.9595 4.30298 49.4124 5.02463C49.2798 5.19064 48.9739 5.09417 48.9277 4.82117C48.9372 4.51249 50.1386 2.24176 50.8091 1.62329C51.0726 1.38182 51.5079 0.908026 52.1135 1.17977Z" fill="white"/>
<path d="M44.0022 0.149796C44.1995 0.00441888 44.4045 -0.0465256 44.5092 0.0479512C46.0459 1.3329 46.8608 3.36773 47.3654 5.23057C47.3844 5.27397 47.3856 5.33625 47.3704 5.40122C47.3641 5.45675 47.3226 5.51541 47.2567 5.5608C47.1863 5.61091 47.1257 5.62617 47.0972 5.58299C46.4237 4.68732 42.577 1.20242 44.0022 0.149796Z" fill="white"/>
<path d="M11.461 22.4274C11.8293 22.1593 12.2297 21.9361 12.6534 21.7629C13.0967 21.639 13.5692 21.6595 13.9995 21.8215C14.4297 21.9835 14.7944 22.278 15.0382 22.6606C15.2563 23.0422 15.3416 23.4828 15.2814 23.916C15.2212 24.3491 15.0187 24.7514 14.7043 25.0623C14.4606 25.3143 14.1839 25.5338 13.8816 25.7152C12.5342 26.5663 11.1748 27.3707 9.81547 28.2218C9.53732 28.4348 9.24225 28.6259 8.93308 28.7931C8.46281 29.0224 7.92537 29.0838 7.41368 28.9667C6.902 28.8497 6.44826 28.5614 6.13092 28.1519C5.89369 27.8619 5.69348 27.5448 5.53471 27.2075C4.24691 24.561 2.91142 21.9261 1.67131 19.2329C1.09895 18.0671 0.633913 16.7263 0.180798 15.4322C-0.0152406 15.0562 -0.0535225 14.6203 0.0741037 14.2171C0.20173 13.8139 0.485195 13.4753 0.864201 13.2733C1.24321 13.0713 1.68785 13.0219 2.10357 13.1355C2.51929 13.2491 2.87329 13.5168 3.09027 13.8816C3.75722 14.7482 4.34761 15.6687 4.85504 16.6331C6.14284 18.9648 7.37103 21.2965 8.61113 23.5583C8.68334 23.6833 8.76296 23.8039 8.84961 23.9197C9.783 23.536 10.6609 23.0343 11.461 22.4274Z" fill="white"/>
<path d="M24.7761 21.6142C21.8309 24.9835 16.8943 24.1324 14.4141 19.7954C12.6493 16.7175 12.3393 11.6343 16.1789 8.42819C16.9988 7.75696 17.9792 7.29971 19.0287 7.09909C20.3155 6.91872 21.6277 7.14068 22.7777 7.73326C23.9277 8.32584 24.8567 9.2587 25.432 10.3985C27.5306 14.1293 27.2325 18.886 24.7761 21.6142ZM23.5837 13.7562C23.2708 12.8394 22.6431 12.0567 21.807 11.541C21.3339 11.2113 20.759 11.051 20.1792 11.0871C19.5993 11.1232 19.0499 11.3535 18.6233 11.7392C16.9182 13.2199 16.5604 16.7292 17.8005 18.8161C17.9586 19.1564 18.1907 19.4588 18.4808 19.7022C18.7709 19.9456 19.1119 20.1241 19.4799 20.2251C19.8479 20.3262 20.234 20.3474 20.6113 20.2873C20.9886 20.2271 21.3478 20.0871 21.664 19.877C22.5883 19.1763 23.2664 18.2115 23.604 17.1167C23.9417 16.0218 23.9221 14.8513 23.548 13.7679L23.5837 13.7562Z" fill="white"/>
<path d="M36.7954 15.2251C36.4939 15.2885 36.1824 15.2923 35.8793 15.2362C35.5763 15.1801 35.2877 15.0654 35.0307 14.8987C34.8058 14.7729 34.6122 14.6 34.4638 14.3923C34.3155 14.1846 34.2161 13.9474 34.1728 13.6976C34.1294 13.4479 34.1433 13.1919 34.2132 12.948C34.2832 12.7041 34.4077 12.4784 34.5776 12.2871C34.8736 11.9027 35.2938 11.6275 35.77 11.506C37.0133 11.1532 38.2932 10.9381 39.5857 10.8648C39.8697 10.8325 40.1574 10.856 40.4319 10.9339C40.7065 11.0119 40.9623 11.1426 41.1845 11.3186C41.4066 11.4945 41.5906 11.7121 41.7256 11.9585C41.8605 12.2049 41.9438 12.4752 41.9705 12.7535C42.3431 14.1205 42.3839 15.5538 42.0897 16.939C41.0166 21.4159 37.3201 22.9548 33.1705 21.5208C32.0057 21.1374 30.9844 20.423 30.2372 19.4689C29.2406 18.3199 28.534 16.9582 28.1743 15.4933C27.8829 14.1888 27.9148 12.8352 28.2675 11.5453C28.6201 10.2554 29.2832 9.06664 30.2014 8.07834C31.0728 7.00417 32.2038 6.1588 33.4925 5.61835C34.3068 5.1795 35.2597 5.05472 36.1635 5.26859C36.3685 5.32407 36.5546 5.43217 36.7025 5.58168C36.8504 5.7312 36.9547 5.91667 37.0046 6.11888C37.0545 6.32108 37.0481 6.53265 36.9862 6.73165C36.9242 6.93064 36.809 7.10981 36.6524 7.25057C36.3546 7.51412 36.0311 7.74842 35.6865 7.95009C34.6264 8.61016 33.7039 9.46071 32.9678 10.4567C32.4853 11.1012 32.153 11.8413 31.9944 12.6248C31.8357 13.4083 31.8546 14.2163 32.0497 14.992C32.3201 16.0496 32.9202 16.9989 33.7667 17.7084C36.39 20.0402 39.8003 17.79 39.2041 14.6072C38.3337 14.8171 37.5705 15.0386 36.7954 15.2251Z" fill="white"/>
<path d="M52.8215 21.8007C48.9462 24.1325 44.5343 21.8007 43.5684 16.9041C42.8649 13.4065 44.2004 8.50979 48.8747 6.6444C49.8692 6.25605 50.9479 6.1197 52.0107 6.248C53.2876 6.47655 54.459 7.09118 55.3596 8.00525C56.2602 8.91931 56.8448 10.0867 57.0307 11.3429C57.8177 15.505 56.0291 19.947 52.8215 21.8007ZM54.169 13.9544C54.1678 12.9859 53.8174 12.0487 53.1793 11.3079C52.8382 10.8497 52.3451 10.5214 51.7841 10.3789C51.223 10.2365 50.6289 10.2887 50.1028 10.5268C48.0042 11.4128 46.5256 14.6306 47.0622 16.9974C47.1032 17.3688 47.2266 17.727 47.4239 18.0469C47.6212 18.3668 47.8876 18.6407 48.2045 18.8495C48.5213 19.0582 48.881 19.1968 49.2583 19.2555C49.6357 19.3141 50.0216 19.2915 50.389 19.1892C51.4983 18.8103 52.4588 18.1022 53.1364 17.1637C53.8141 16.2252 54.1751 15.1032 54.169 13.9544Z" fill="white"/>
<path d="M60.9498 22.78C60.8913 23.2067 60.6619 23.5932 60.3119 23.8545C59.9619 24.1157 59.5201 24.2304 59.0837 24.1732C58.6473 24.116 58.252 23.8916 57.9848 23.5494C57.7175 23.2073 57.6003 22.7753 57.6588 22.3486C57.7173 21.9219 57.9468 21.5354 58.2967 21.2741C58.6467 21.0128 59.0885 20.8982 59.5249 20.9554C59.9613 21.0126 60.3566 21.2369 60.6239 21.5791C60.8911 21.9213 61.0084 22.3533 60.9498 22.78ZM59.9124 7.0524C60.1392 6.71375 60.4719 6.45586 60.8609 6.31719C61.2498 6.17852 61.6742 6.1665 62.0707 6.28293C62.4738 6.38154 62.8299 6.61255 63.0796 6.93728C63.3292 7.26202 63.4571 7.66075 63.442 8.06671C63.3894 8.71788 63.2898 9.36461 63.1439 10.002C62.7504 12.1589 62.3688 14.3157 61.9515 16.4493C61.7607 17.3004 61.5103 18.1165 61.236 18.9792C61.1406 19.2489 60.9812 19.4926 60.771 19.6904C60.6403 19.8392 60.4734 19.9533 60.2856 20.0222C60.0978 20.0912 59.8953 20.1127 59.6968 20.0848C59.4983 20.0569 59.3101 19.9805 59.1498 19.8627C58.9895 19.7448 58.8622 19.5893 58.7797 19.4106C58.6379 19.09 58.5609 18.7455 58.5531 18.3963C58.5531 16.9506 58.5531 15.4933 58.6485 14.0359C58.8106 11.9561 59.1294 9.89081 59.6024 7.85685C59.6581 7.58435 59.763 7.32376 59.9124 7.08738V7.0524Z" fill="white"/>
<path fill-rule="evenodd" clip-rule="evenodd" d="M6.42312 32.1487C6.28233 32.456 6.24372 32.7986 6.31252 33.1283C6.35829 33.5629 6.45882 33.9904 6.61182 34.401C6.80284 34.9038 7.01659 35.401 7.28015 36.0138C7.34076 36.1548 7.4041 36.302 7.47038 36.4569C7.8258 37.2871 8.27176 38.3481 8.86661 39.8836C9.03498 40.3198 9.18449 40.7596 9.33505 41.2024C9.39587 41.3813 9.45691 41.5608 9.51939 41.7407C9.74335 42.3803 10.1287 42.9549 10.6395 43.4103C10.8564 43.6606 11.1441 43.843 11.4667 43.9342C11.7956 44.0272 12.1454 44.0213 12.4708 43.9173C12.7962 43.8132 13.082 43.6158 13.2911 43.3507C13.4961 43.0908 13.618 42.7776 13.6417 42.4504C13.7747 41.813 13.7293 41.1521 13.5101 40.5376C13.1622 39.5173 12.7659 38.4955 12.3089 37.4961L12.3068 37.4917C11.555 35.9281 10.7908 34.3753 9.99045 32.8219L9.98446 32.811C9.75016 32.4063 9.44567 32.0445 9.08467 31.7419C8.85031 31.4718 8.52704 31.2896 8.17004 31.2268C7.80543 31.1627 7.42939 31.2273 7.10905 31.4092C6.80601 31.5784 6.56579 31.8373 6.42312 32.1487Z" fill="white"/>
<path fill-rule="evenodd" clip-rule="evenodd" d="M17.9059 28.2986C16.7271 28.0001 15.496 27.9566 14.2984 28.1712C13.3708 28.2605 12.4585 28.4697 11.825 28.8841C11.5028 29.095 11.2423 29.3658 11.0974 29.71C10.9517 30.0561 10.9331 30.4519 11.0525 30.8929C11.2705 31.7007 11.5536 32.4861 11.8357 33.269L11.8814 33.3958L11.8825 33.3986C12.7319 35.673 13.5894 37.9397 14.4547 40.1986C14.5556 40.5546 14.6983 40.898 14.8799 41.2219L14.8833 41.2279C15.1232 41.6303 15.4309 41.9902 15.7934 42.2925C15.9747 42.4587 16.1989 42.5737 16.442 42.6251C16.6875 42.6769 16.9428 42.6619 17.1801 42.5815C17.4175 42.5012 17.6277 42.3587 17.7879 42.1695C17.9455 41.9834 18.0487 41.7592 18.0866 41.5206C18.243 40.8724 18.1929 40.1929 17.9429 39.5733C17.8649 39.3648 17.8037 39.1517 17.7392 38.9274C17.7177 38.8526 17.6959 38.7765 17.6729 38.699C19.6536 37.942 21.7611 36.9241 22.5022 34.5561C22.7924 33.7378 22.8166 32.8517 22.5714 32.0193C22.326 31.186 21.8225 30.4474 21.1303 29.9052C20.1882 29.1462 19.0877 28.5978 17.9059 28.2986ZM14.6384 31.2031C14.6774 31.1921 14.7167 31.1819 14.7561 31.1724C16.0456 30.9742 17.3649 31.2383 18.4711 31.9159C18.9586 32.2474 19.1583 32.6157 19.1926 32.9701C19.228 33.335 19.0923 33.7304 18.8197 34.1105C18.3046 34.8285 17.3646 35.4032 16.5155 35.5103C15.8965 34.1165 15.2679 32.6663 14.6384 31.2031Z" fill="white"/>
<path d="M25.7647 25.7473C27.1685 25.1134 28.9074 25.0039 30.2681 25.4496C30.6108 25.5472 30.9081 25.7583 31.1092 26.0468C31.309 26.3335 31.4012 26.679 31.3704 27.0244C31.3684 27.2486 31.3121 27.4692 31.2062 27.6682C31.0984 27.8708 30.9423 28.045 30.7511 28.1762C30.5599 28.3073 30.3392 28.3916 30.1077 28.4217C29.8761 28.4519 29.6406 28.4271 29.4209 28.3494L29.4042 28.3435L29.3885 28.3354C29.2761 28.2779 29.1567 28.2346 29.0332 28.2064L29.0254 28.2047C28.0682 27.9561 27.1653 28.368 26.8355 28.8741C26.6782 29.1154 26.6587 29.359 26.7897 29.5806C26.93 29.8179 27.2741 30.0842 27.9704 30.274C28.1619 30.3254 28.3582 30.375 28.5573 30.4254C29.1079 30.5648 29.6801 30.7096 30.2334 30.9103L30.2355 30.9111C32.7881 31.8607 33.7386 33.8274 33.4132 35.6772C33.0913 37.5065 31.5288 39.1713 29.1791 39.564C28.3241 39.7493 27.4343 39.7132 26.5978 39.4593C25.7592 39.2046 25.0033 38.7399 24.4052 38.1111L24.3896 38.0947C24.2008 37.8578 24.0738 37.5795 24.0175 37.2842C23.9657 37.0177 23.993 36.7423 24.096 36.4904C24.1984 36.24 24.3716 36.0233 24.5951 35.8654C24.8312 35.6864 25.1158 35.579 25.4137 35.5566C25.7106 35.5343 26.0077 35.5974 26.2684 35.738C26.5288 35.861 26.771 36.0179 26.9884 36.2045L26.9925 36.2079C27.3771 36.5518 27.8424 36.6414 28.2886 36.5584C28.7413 36.4742 29.167 36.2123 29.4408 35.8648C29.7128 35.5195 29.822 35.1093 29.6924 34.7111C29.562 34.31 29.1699 33.8606 28.3084 33.4849C28.0832 33.3914 27.8497 33.316 27.6068 33.2426C27.5413 33.2228 27.4747 33.2031 27.4073 33.1831C27.2277 33.1298 27.0429 33.0749 26.8617 33.0144C26.7369 32.9728 26.6131 32.9334 26.4905 32.8943C26.1554 32.7876 25.8287 32.6836 25.5143 32.5441C24.83 32.3163 24.2388 31.8789 23.8287 31.2966C23.4169 30.712 23.2097 30.0129 23.2379 29.3037C23.2401 27.5754 24.3534 26.3847 25.7647 25.7473Z" fill="white"/>
<path d="M43.5621 25.5634C43.2899 25.4334 42.9889 25.3717 42.6863 25.3838C42.3836 25.396 42.0888 25.4816 41.8285 25.6331C41.5698 25.7835 41.3532 25.9941 41.198 26.2462C41.0557 26.4585 40.9572 26.6959 40.9081 26.9452C40.859 27.1943 40.8602 27.4503 40.9115 27.6988C40.9622 28.0182 41.0184 28.3288 41.0739 28.6351C41.1658 29.142 41.2552 29.6375 41.3142 30.1427L41.3164 30.1555C41.4507 30.9478 41.521 31.7491 41.5273 32.5521L41.5279 32.5635C41.5738 33.4307 41.2716 34.281 40.6861 34.934L40.6768 34.9456C40.4863 35.1843 40.2316 35.3665 39.9411 35.4718C39.6507 35.5771 39.3361 35.6013 39.0324 35.5417C38.7287 35.4821 38.448 35.3411 38.2216 35.1344C37.9952 34.9277 37.8319 34.6627 37.7504 34.3706C37.5764 33.7549 37.4757 33.1216 37.4501 32.4834L37.7473 27.8571C37.7517 27.7967 37.7567 27.7347 37.7618 27.6721C37.7731 27.5316 37.7847 27.3885 37.7895 27.255C37.7965 27.0586 37.7905 26.8566 37.7437 26.6654C37.6958 26.47 37.6047 26.2841 37.4431 26.1258C37.2831 25.9691 37.0671 25.8535 36.7953 25.7748C36.3038 25.6357 35.8882 25.6401 35.5419 25.7838C35.1954 25.9275 34.958 26.1943 34.79 26.5025C34.6233 26.8081 34.5162 27.1699 34.4352 27.5323C34.3751 27.8012 34.3268 28.0835 34.2809 28.3522C34.265 28.4448 34.2495 28.5357 34.2338 28.624L34.2334 28.6266C33.9878 30.1002 33.9147 31.5964 34.0155 33.0862C34.0343 33.8913 34.206 34.686 34.522 35.4297C34.8785 36.3893 35.5242 37.2207 36.3739 37.8142C37.2254 38.4089 38.2415 38.7366 39.2877 38.7539C40.3339 38.7712 41.3608 38.4773 42.2324 37.9112C43.1026 37.3459 43.777 36.5357 44.1664 35.5878C44.7111 34.3803 44.9669 33.0671 44.9141 31.7483C44.8821 30.7855 44.8285 29.8153 44.7752 28.85C44.749 28.3765 44.7229 27.904 44.6995 27.4344C44.6877 26.9635 44.5289 26.5074 44.2443 26.1273C44.0682 25.887 43.8338 25.6932 43.5621 25.5634Z" fill="white"/>
<path d="M53.196 32.8172C53.1684 32.8515 53.1393 32.887 53.1089 32.9239C52.8875 31.6751 52.6823 30.4267 52.4768 29.1764C52.4031 28.7278 52.329 28.2773 52.2545 27.8281L52.2461 27.778L52.2189 27.7347C52.1676 27.6532 52.1625 27.5733 52.1625 27.4029V27.3832L52.1594 27.3637C52.1038 27.0118 51.941 26.6843 51.6923 26.4241C51.4443 26.1646 51.1222 25.984 50.7679 25.9056C50.4142 25.8203 50.0425 25.8391 49.6996 25.9597C49.3576 26.08 49.0595 26.2962 48.8425 26.5812C48.6621 26.7999 48.5142 27.0425 48.4034 27.3017C48.1519 27.8601 47.8982 28.4199 47.6438 28.9812L47.6394 28.9909C47.0043 30.3922 46.3649 31.8029 45.7441 33.2247L45.7422 33.2293C45.3611 34.1512 45.0465 35.1226 44.733 36.091C44.6704 36.2843 44.6078 36.4775 44.5447 36.6702C44.4315 36.9758 44.382 37.3004 44.399 37.6249C44.3784 37.9154 44.4495 38.2052 44.6029 38.4551C44.7593 38.7101 44.9936 38.9107 45.2727 39.0288C45.5685 39.1556 45.8992 39.1825 46.2125 39.1053C46.5251 39.0282 46.8027 38.8518 47.0016 38.6038C47.2556 38.2983 47.4741 37.9651 47.6523 37.6121C48.1782 36.5603 48.6808 35.4957 49.1811 34.4357C49.3747 34.0257 49.5628 33.6585 49.7768 33.2586C49.7915 33.3079 49.8065 33.356 49.822 33.4042C50.0463 34.3697 50.4249 35.2945 50.9438 36.1447C51.042 36.3248 51.1788 36.4822 51.3448 36.6061C51.5128 36.7315 51.7067 36.8195 51.913 36.8642C52.1193 36.9089 52.3331 36.9091 52.5395 36.8648C52.7456 36.8206 52.9401 36.7325 53.1082 36.6077L53.4409 36.3642L56.0232 34.2375L55.8705 35.189C55.6609 36.4969 55.4529 37.7939 55.2319 39.0912C55.0873 39.6662 55.0875 40.2668 55.2325 40.8416C55.2953 41.1651 55.4553 41.4629 55.6921 41.6971C55.9309 41.9332 56.2367 42.0936 56.5699 42.1576C56.9031 42.2215 57.2483 42.1861 57.5606 42.0558C57.8684 41.9275 58.1302 41.7129 58.3132 41.4394C58.739 40.9229 59.004 40.2976 59.0768 39.6379C59.1864 38.7063 59.3102 37.762 59.4341 36.818C59.5768 35.7299 59.7195 34.6421 59.84 33.5752L59.8404 33.5719C59.9564 32.404 60.0125 31.2313 60.0086 30.0579C60.034 29.6871 59.9396 29.3177 59.7384 29.002C59.5365 28.6852 59.2375 28.4389 58.8841 28.298C58.5165 28.1346 58.105 28.0909 57.7101 28.1735C57.3178 28.2555 56.9627 28.4577 56.6963 28.7506C56.22 29.1813 55.7732 29.6422 55.3587 30.1303L55.3559 30.1336C54.9034 30.6849 54.454 31.247 54.0075 31.8055C53.736 32.145 53.4653 32.4837 53.196 32.8172Z" fill="white"/>
</g>
<defs>
<clipPath id="clip0_78_284">
<rect width="70" height="44" fill="white"/>
</clipPath>
</defs>
</svg>
