<svg width="190" height="72" viewBox="0 0 190 72" fill="none" xmlns="http://www.w3.org/2000/svg">
<path d="M87.103 63.4285H92.051V44.8628H87.103V63.4285ZM87.103 41.9675H92.051V37.5522H87.103V41.9675Z" fill="white"/>
<path d="M95.2393 69.5087H100.187V61.3297H100.26C101.315 62.9219 103.025 63.9715 105.645 63.9715C110.447 63.9715 113.721 60.1715 113.721 54.1639C113.721 48.3733 110.556 44.3562 105.608 44.3562C103.061 44.3562 101.315 45.5505 100.114 47.179H100.005V44.8629H95.2393V69.5087ZM104.59 59.8819C101.643 59.8819 100.078 57.6744 100.078 54.3086C100.078 50.9791 101.315 48.3371 104.408 48.3371C107.464 48.3371 108.701 50.798 108.701 54.3086C108.701 57.8191 107.1 59.8819 104.59 59.8819Z" fill="white"/>
<path d="M123.592 63.9715C128.249 63.9715 131.45 61.7276 131.45 58C131.45 53.6572 127.994 52.7887 124.865 52.1372C122.209 51.5944 119.735 51.4495 119.735 49.8572C119.735 48.5182 121.008 47.7942 122.937 47.7942C125.047 47.7942 126.32 48.5182 126.539 50.5086H131.014C130.65 46.781 127.921 44.3562 123.01 44.3562C118.753 44.3562 115.406 46.2743 115.406 50.2913C115.406 54.3448 118.68 55.2496 122.027 55.901C124.574 56.4076 126.939 56.5886 126.939 58.362C126.939 59.6648 125.702 60.4972 123.519 60.4972C121.3 60.4972 119.771 59.5563 119.444 57.421H114.86C115.151 61.3658 118.171 63.9715 123.592 63.9715Z" fill="white"/>
<path d="M150.236 63.4285V44.8628H145.288V55.5751C145.288 58.0361 143.869 59.7733 141.541 59.7733C139.431 59.7733 138.448 58.579 138.448 56.4075V44.8628H133.537V57.24C133.537 61.2932 135.865 63.9352 140.013 63.9352C142.632 63.9352 144.087 62.958 145.361 61.257H145.47V63.4285H150.236Z" fill="white"/>
<path d="M153.437 63.4286H158.385V52.6438C158.385 50.1828 159.731 48.5905 161.732 48.5905C163.551 48.5905 164.606 49.6761 164.606 51.7753V63.4286H169.554V52.6438C169.554 50.1828 170.827 48.5905 172.901 48.5905C174.72 48.5905 175.775 49.6761 175.775 51.7753V63.4286H180.723V50.9429C180.723 46.8895 178.504 44.3562 174.575 44.3562C172.21 44.3562 170.245 45.5867 168.972 47.6133H168.899C167.989 45.659 166.098 44.3562 163.733 44.3562C161.15 44.3562 159.331 45.659 158.312 47.36H158.203V44.8629H153.437V63.4286Z" fill="white"/>
<path d="M87.1758 31.6297H92.1237V5.75342H87.1758V31.6297Z" fill="white"/>
<path d="M104.223 32.1724C110.007 32.1724 113.973 27.9019 113.973 22.3648C113.973 16.8276 110.007 12.5571 104.223 12.5571C98.4379 12.5571 94.4722 16.8276 94.4722 22.3648C94.4722 27.9019 98.4379 32.1724 104.223 32.1724ZM104.223 28.4086C101.167 28.4086 99.4931 25.9839 99.4931 22.3648C99.4931 18.7457 101.167 16.2848 104.223 16.2848C107.242 16.2848 108.952 18.7457 108.952 22.3648C108.952 25.9839 107.242 28.4086 104.223 28.4086Z" fill="white"/>
<path d="M124.495 37.963C127.26 37.963 129.662 37.3116 131.226 35.8639C132.608 34.5972 133.445 32.8239 133.445 30.2182V13.0638H128.679V15.0181H128.606C127.479 13.4619 125.769 12.5571 123.44 12.5571C118.711 12.5571 115.363 16.1038 115.363 21.641C115.363 27.2505 119.438 30.5076 123.586 30.5076C125.951 30.5076 127.369 29.5667 128.461 28.3363H128.57V30.3629C128.57 32.8962 127.224 34.2352 124.422 34.2352C122.13 34.2352 121.075 33.3306 120.675 32.1724H115.764C116.273 35.7915 119.402 37.963 124.495 37.963ZM124.422 26.5629C121.876 26.5629 120.202 24.7172 120.202 21.5686C120.202 18.4563 121.876 16.5019 124.386 16.5019C127.369 16.5019 128.825 18.818 128.825 21.5324C128.825 24.2828 127.551 26.5629 124.422 26.5629Z" fill="white"/>
<path d="M145.472 32.1724C151.257 32.1724 155.223 27.9019 155.223 22.3648C155.223 16.8276 151.257 12.5571 145.472 12.5571C139.687 12.5571 135.722 16.8276 135.722 22.3648C135.722 27.9019 139.687 32.1724 145.472 32.1724ZM145.472 28.4086C142.416 28.4086 140.742 25.9839 140.742 22.3648C140.742 18.7457 142.416 16.2848 145.472 16.2848C148.492 16.2848 150.202 18.7457 150.202 22.3648C150.202 25.9839 148.492 28.4086 145.472 28.4086Z" fill="white"/>
<path d="M159.56 24.5363H180.952V20.302H159.56V24.5363Z" fill="white"/>
<path d="M182.521 41.709C182.521 40.8761 183.2 40.2009 184.037 40.2009H187.068C187.906 40.2009 188.585 40.8761 188.585 41.709C188.585 42.5416 187.906 43.2168 187.068 43.2168H184.037C183.2 43.2168 182.521 42.5416 182.521 41.709Z" fill="white"/>
<path fill-rule="evenodd" clip-rule="evenodd" d="M37.1343 0C57.1218 0 73.3248 16.1177 73.3248 36C73.3248 55.8823 57.1218 72 37.1343 72C17.1469 72 0.943848 55.8823 0.943848 36C0.943848 16.1177 17.1469 0 37.1343 0ZM35.8262 2.69386C31.6976 3.27184 27.7662 6.57194 24.7145 12.0913C23.8292 13.6923 23.0305 15.461 22.3344 17.3708C26.484 16.3335 31.0424 15.722 35.8262 15.6274V2.69386ZM19.2758 18.2354C20.1413 15.5332 21.2002 13.0471 22.4222 10.8372C23.9349 8.10106 25.7303 5.73831 27.7532 3.92359C16.7533 7.10141 8.08282 15.7262 4.8882 26.6683C6.71251 24.656 9.08778 22.8701 11.8384 21.3653C14.06 20.1497 16.5593 19.0964 19.2758 18.2354ZM18.4065 21.278C17.3638 25.4057 16.749 29.9401 16.6539 34.6988H3.65195C4.23301 30.5917 7.55057 26.681 13.0991 23.6455C14.7086 22.765 16.4867 21.9704 18.4065 21.278ZM19.2707 34.6988C19.3787 29.5056 20.1302 24.6301 21.3737 20.3224C25.7043 19.0854 30.6057 18.3377 35.8262 18.2302V23.8514C33.8786 28.8112 29.9063 32.7622 24.9202 34.6988H19.2707ZM16.6539 37.3012H3.65195C4.23301 41.4083 7.55057 45.3188 13.0991 48.3545C14.7086 49.235 16.4867 50.0296 18.4065 50.722C17.3638 46.5943 16.749 42.0599 16.6539 37.3012ZM21.3737 51.6776C20.1302 47.3699 19.3787 42.4944 19.2707 37.3012H24.9202C29.9063 39.2378 33.8788 43.1888 35.8262 48.1486V53.7698C30.6057 53.6623 25.7043 52.9146 21.3737 51.6776ZM19.2758 53.7646C16.5593 52.9036 14.06 51.8503 11.8384 50.6347C9.08778 49.1299 6.71251 47.344 4.8882 45.3317C8.08282 56.2738 16.7533 64.8986 27.7532 68.0764C25.7303 66.2616 23.9349 63.8989 22.4222 61.1627C21.2002 58.9529 20.1413 56.4667 19.2758 53.7646ZM35.8262 69.3061C31.6976 68.7281 27.7662 65.428 24.7145 59.9087C23.8292 58.3078 23.0305 56.5389 22.3344 54.6293C26.484 55.6664 31.0424 56.2781 35.8262 56.3726V69.3061ZM46.5154 68.0764C48.5383 66.2616 50.3337 63.8989 51.8466 61.1627C53.0684 58.9529 54.1274 56.4667 54.9929 53.7646C57.7093 52.9036 60.2086 51.8503 62.4304 50.6347C65.1808 49.1299 67.5562 47.344 69.3804 45.3317C66.1859 56.2738 57.5153 64.8986 46.5154 68.0764ZM51.9342 54.6293C51.2381 56.5389 50.4394 58.3078 49.5542 59.9087C46.5026 65.428 42.5712 68.7281 38.4424 69.3061V56.3726C43.2262 56.2781 47.7846 55.6664 51.9342 54.6293ZM55.8622 50.722C57.7819 50.0296 59.5601 49.235 61.1695 48.3545C66.718 45.3188 70.0356 41.4083 70.6167 37.3012H57.6147C57.5197 42.0599 56.9048 46.5943 55.8622 50.722ZM54.9981 37.3012C54.8901 42.4944 54.1384 47.3699 52.8949 51.6776C48.5643 52.9146 43.6631 53.6623 38.4424 53.7698V48.1527C40.3893 43.1912 44.3625 39.2384 49.35 37.3012H54.9981ZM57.6147 34.6988H70.6167C70.0356 30.5917 66.718 26.681 61.1695 23.6455C59.5601 22.765 57.7819 21.9704 55.8622 21.278C56.9048 25.4057 57.5197 29.9401 57.6147 34.6988ZM52.8949 20.3224C54.1384 24.6301 54.8901 29.5056 54.9981 34.6988H49.35C44.3625 32.7616 40.3893 28.8088 38.4424 23.8473V18.2302C43.6631 18.3377 48.5643 19.0854 52.8949 20.3224ZM54.9929 18.2354C57.7093 19.0964 60.2086 20.1497 62.4304 21.3653C65.1808 22.8701 67.5562 24.656 69.3804 26.6683C66.1859 15.7262 57.5153 7.10141 46.5154 3.92359C48.5383 5.73831 50.3337 8.10106 51.8466 10.8372C53.0684 13.0471 54.1274 15.5332 54.9929 18.2354ZM38.4424 2.69386C42.5712 3.27184 46.5026 6.57194 49.5542 12.0913C50.4394 13.6923 51.2381 15.461 51.9342 17.3708C47.7846 16.3335 43.2262 15.722 38.4424 15.6274V2.69386Z" fill="white"/>
</svg>
