<svg width="28" height="29" viewBox="0 0 28 29" fill="none" xmlns="http://www.w3.org/2000/svg">
<g clip-path="url(#clip0_78_1069)">
<path d="M14.4178 -3.74809e-05C14.6946 0.0460771 14.984 0.0574167 15.2451 0.14511C15.8769 0.356783 16.533 0.538974 17.1131 0.848168C19.6974 2.22707 22.2629 3.63923 24.8261 5.05442C26.9294 6.2156 27.9835 7.98685 27.9921 10.3251C28.003 13.0972 28.0023 15.8694 27.9921 18.6416C27.9835 20.9556 26.9568 22.7276 24.8785 23.8843C22.2527 25.3456 19.6169 26.791 16.9669 28.21C15.0528 29.2343 13.0753 29.2736 11.1549 28.2576C8.38606 26.7933 5.63446 25.2957 2.91649 23.7452C1.03986 22.674 0.0679294 20.9995 0.0350885 18.8956C-0.0110451 15.9541 -0.0110451 13.0111 0.0350885 10.0703C0.0679294 7.97853 1.0297 6.30556 2.89538 5.23888C5.61179 3.68535 8.37903 2.21573 11.1291 0.71814C11.8422 0.330324 12.6155 0.111847 13.4326 0.0445651C13.4889 0.0400293 13.5429 0.0143261 13.5984 -0.000793457C13.8713 -3.74809e-05 14.1442 -3.74809e-05 14.4178 -3.74809e-05ZM1.01875 14.4746C1.01875 15.8702 1.01328 17.2657 1.02032 18.6612C1.03048 20.6192 1.9078 22.1002 3.67105 23.0701C6.24515 24.486 8.82316 25.8944 11.4035 27.2983C13.123 28.2334 14.862 28.247 16.583 27.3164C19.1845 25.9103 21.7773 24.4875 24.3655 23.0587C26.117 22.0919 26.9873 20.6101 26.9943 18.665C27.0037 15.8739 27.0053 13.0829 26.9936 10.2926C26.9857 8.35955 26.1202 6.88313 24.378 5.92152C21.7726 4.4829 19.161 3.05486 16.5447 1.63589C14.8393 0.711336 13.1222 0.734771 11.4231 1.66009C8.83489 3.06998 6.24828 4.48366 3.66635 5.90489C1.91328 6.86952 1.03595 8.34216 1.0211 10.288C1.01015 11.6836 1.01875 13.0791 1.01875 14.4746Z" fill="white"/>
<path d="M25.4909 14.4958C25.4909 15.8913 25.4877 17.2869 25.4916 18.6824C25.4956 20.0817 24.8677 21.1219 23.6111 21.8099C21.0261 23.2251 18.4402 24.641 15.8536 26.0547C14.6104 26.7336 13.3734 26.7207 12.1309 26.0373C9.55677 24.6221 6.97719 23.216 4.39996 21.8053C3.15436 21.1235 2.52412 20.0938 2.52491 18.7051C2.52647 15.8951 2.52725 13.0859 2.52491 10.276C2.52334 8.87588 3.15983 7.84322 4.41795 7.1568C7.00534 5.74463 9.58961 4.32793 12.1754 2.9135C13.3765 2.25656 14.5908 2.23615 15.7934 2.88931C18.4348 4.32415 21.073 5.76353 23.7026 7.21878C24.8817 7.87119 25.4791 8.88042 25.4885 10.1966C25.4979 11.6292 25.4901 13.0625 25.4909 14.4958ZM24.4923 14.4913C24.4923 13.0867 24.4861 11.6821 24.4947 10.2775C24.5009 9.25841 24.0482 8.50772 23.1349 8.00802C20.5491 6.59435 17.9625 5.18143 15.3798 3.76322C14.4602 3.25823 13.5571 3.25898 12.6352 3.767C10.0541 5.18823 7.46668 6.59964 4.88007 8.0118C3.97538 8.50546 3.52264 9.24556 3.52343 10.2525C3.52655 13.0806 3.52421 15.9087 3.52577 18.7368C3.52577 18.9054 3.53124 19.0778 3.5633 19.2426C3.71578 20.0122 4.16382 20.5716 4.86912 20.9556C7.4487 22.361 10.0283 23.7663 12.5992 25.1861C13.5399 25.7054 14.454 25.7175 15.3954 25.1997C17.9687 23.7845 20.5483 22.3784 23.1255 20.9692C24.038 20.471 24.4986 19.7241 24.4939 18.7043C24.4869 17.3005 24.4923 15.8959 24.4923 14.4913Z" fill="white"/>
<path d="M9.50815 16.1643C9.50815 15.9291 9.50815 15.6948 9.50815 15.4597C9.50815 13.913 9.50737 12.367 9.50893 10.8203C9.50893 10.7174 9.50815 10.6109 9.53239 10.5118C9.59025 10.2752 9.81701 10.1202 10.0508 10.1414C10.2932 10.1626 10.477 10.3417 10.5012 10.5867C10.5106 10.6804 10.5067 10.7749 10.5067 10.8694C10.5067 13.2832 10.5067 15.6971 10.5067 18.1109C10.5067 18.2054 10.5098 18.2999 10.5012 18.3936C10.4809 18.6174 10.3472 18.7928 10.1282 18.8011C9.95854 18.8079 9.77009 18.7157 9.61762 18.6242C9.53161 18.5728 9.49877 18.4352 9.44638 18.3347C8.53074 16.5664 7.61589 14.7982 6.70103 13.03C6.65881 12.9483 6.61346 12.8682 6.5165 12.7926C6.5165 12.8894 6.5165 12.9869 6.5165 13.0837C6.5165 14.7717 6.5165 16.4591 6.5165 18.1472C6.5165 18.2319 6.52197 18.318 6.51024 18.4012C6.47584 18.6499 6.25612 18.8359 6.01137 18.8329C5.7635 18.8298 5.55395 18.6408 5.52423 18.3898C5.5172 18.3339 5.52032 18.2765 5.52032 18.2205C5.52032 15.7311 5.52032 13.2417 5.52032 10.7522C5.52032 10.6865 5.49687 10.601 5.52971 10.5579C5.63839 10.4151 5.74786 10.2125 5.89565 10.1739C6.04265 10.1361 6.2483 10.2487 6.40546 10.3349C6.48522 10.378 6.51806 10.5058 6.56576 10.598C7.48452 12.3745 8.4025 14.1518 9.32127 15.9291C9.36427 16.0115 9.40884 16.0932 9.45263 16.1748C9.4714 16.1711 9.48938 16.1673 9.50815 16.1643Z" fill="white"/>
<path d="M13.025 11.1015C13.025 12.0866 13.025 13.0262 13.025 14.0022C13.4449 14.0022 13.8508 14.0022 14.2574 14.0022C14.4622 14.0022 14.6671 13.9999 14.872 14.003C15.2707 14.0082 15.4991 14.1829 15.503 14.4807C15.5069 14.7816 15.2786 14.9668 14.8837 14.9698C14.3762 14.9744 13.8695 14.9714 13.3621 14.9714C13.2565 14.9714 13.1509 14.9714 13.011 14.9714C13.011 15.0976 13.011 15.1989 13.011 15.2995C13.011 16.2989 13.0141 17.299 13.0086 18.2984C13.0071 18.622 12.7826 18.8435 12.4941 18.8329C12.2134 18.8231 12.0234 18.6106 12.014 18.2961C12.0117 18.2205 12.0132 18.1449 12.0132 18.0701C12.0132 15.722 12.0132 13.374 12.0132 11.0259C12.0132 10.9035 12.0101 10.781 12.0148 10.6585C12.0265 10.3357 12.2071 10.1429 12.5434 10.1407C13.85 10.1331 15.1574 10.1339 16.4647 10.1399C16.7916 10.1414 16.998 10.344 16.998 10.623C16.998 10.9171 16.7924 11.0993 16.4366 11.1008C15.4123 11.1045 14.3879 11.1023 13.3644 11.1023C13.2581 11.1015 13.1533 11.1015 13.025 11.1015Z" fill="white"/>
<path d="M19.4892 11.1015C19.0247 11.1015 18.579 11.103 18.1326 11.1007C17.7213 11.0985 17.5125 10.9367 17.5117 10.6237C17.5109 10.3145 17.7307 10.1376 18.1294 10.1369C19.3782 10.1346 20.6261 10.1354 21.8749 10.1384C21.9796 10.1384 22.093 10.1482 22.1884 10.1868C22.4238 10.282 22.5317 10.4703 22.4832 10.7107C22.4355 10.9488 22.2713 11.0932 22.0125 11.097C21.5261 11.1038 21.039 11.0985 20.5018 11.0985C20.5018 11.2232 20.5018 11.3313 20.5018 11.4387C20.5018 13.6454 20.5018 15.8521 20.5018 18.0588C20.5018 18.1344 20.5034 18.2099 20.501 18.2848C20.4901 18.6121 20.286 18.8344 19.9982 18.8329C19.7089 18.8314 19.5064 18.6114 19.5056 18.2795C19.5033 16.6761 19.5041 15.0734 19.5041 13.47C19.5041 12.7813 19.5049 12.0933 19.5033 11.4047C19.5041 11.3139 19.4955 11.2225 19.4892 11.1015Z" fill="white"/>
</g>
<defs>
<clipPath id="clip0_78_1069">
<rect width="28" height="29" fill="white"/>
</clipPath>
</defs>
</svg>
