<svg width="20" height="20" viewBox="0 0 20 20" fill="none" xmlns="http://www.w3.org/2000/svg">
<path d="M18 2.5C18.5523 2.5 19 2.05228 19 1.5C19 0.947715 18.5523 0.5 18 0.5V2.5ZM3.50001 2.5L18 2.5V0.5L3.50001 0.5L3.50001 2.5ZM3.50001 7.5L11.5 7.5V5.5L3.50001 5.5V7.5ZM2.00001 4C2.00001 3.17157 2.67158 2.5 3.50001 2.5L3.50001 0.5C1.56701 0.5 7.62939e-06 2.067 7.62939e-06 4L2.00001 4ZM7.62939e-06 4C7.62939e-06 5.933 1.56701 7.5 3.50001 7.5V5.5C2.67158 5.5 2.00001 4.82843 2.00001 4L7.62939e-06 4Z" fill="white"/>
<path d="M1 9.5L1 4" stroke="white" stroke-width="2"/>
<path d="M1 6H0.5V6.5L0.5 16.5V16.5329C0.499975 16.9762 0.499952 17.3581 0.541071 17.6639C0.585136 17.9917 0.684507 18.3058 0.939339 18.5607L0.939341 18.5607C1.19417 18.8155 1.50835 18.9149 1.83611 18.9589C2.14193 19 2.52384 19 2.96708 19L3 19L17 19C17.011 19 17.022 19 17.0329 19C17.4762 19 17.8581 19 18.1639 18.9589C18.4917 18.9149 18.8058 18.8155 19.0607 18.5607C19.3155 18.3058 19.4149 17.9917 19.4589 17.6639C19.5 17.3581 19.5 16.9762 19.5 16.5329C19.5 16.522 19.5 16.511 19.5 16.5V15.5V15H19H16C14.6193 15 13.5 13.8807 13.5 12.5C13.5 11.1193 14.6193 10 16 10H19H19.5V9.5V8.5L19.5 8.46708C19.5 8.02384 19.5 7.64193 19.4589 7.3361C19.4149 7.00835 19.3155 6.69417 19.0607 6.43934C18.8058 6.18451 18.4917 6.08514 18.1639 6.04107C17.8581 5.99995 17.4762 5.99997 17.0329 6L17 6L1 6Z" fill="white" stroke="white"/>
</svg>
