<svg width="16" height="10" viewBox="0 0 16 10" fill="none" xmlns="http://www.w3.org/2000/svg">
<path d="M13.731 9.60241C13.9649 9.86751 14.2768 10.0001 14.6667 10.0001C15.0253 10.0001 15.3372 9.86751 15.6023 9.60241C15.8674 9.35289 16 9.041 16 8.66673C16 8.29246 15.8674 7.98057 15.6023 7.73106L9.07602 1.20474C8.77973 0.924043 8.42105 0.783692 8 0.783692C7.56335 0.783692 7.20468 0.924043 6.92398 1.20474L0.397661 7.73106C0.132553 7.98057 -3.28219e-07 8.29246 -3.44579e-07 8.66673C-3.60939e-07 9.041 0.132553 9.35289 0.397661 9.6024C0.647173 9.86751 0.959063 10.0001 1.33333 10.0001C1.7076 10.0001 2.01949 9.86751 2.269 9.6024L8.79532 3.07609C8.8733 2.99812 8.76413 2.94354 8.46784 2.91235C8.15595 2.88116 7.85185 2.88116 7.55556 2.91235C7.24366 2.94354 7.12671 2.99812 7.20468 3.07609L13.731 9.60241Z" fill="white"/>
</svg>
